<svg width="19" height="25" viewBox="0 0 19 25" fill="none" xmlns="http://www.w3.org/2000/svg">
<path d="M10.9375 6.64062V0H1.17188C0.522461 0 0 0.522461 0 1.17188V23.8281C0 24.4775 0.522461 25 1.17188 25H17.5781C18.2275 25 18.75 24.4775 18.75 23.8281V7.8125H12.1094C11.4648 7.8125 10.9375 7.28516 10.9375 6.64062ZM14.6704 16.9609L9.9624 21.6338C9.6377 21.9565 9.11328 21.9565 8.78857 21.6338L4.08057 16.9609C3.58496 16.4692 3.93262 15.625 4.62988 15.625H7.8125V11.7188C7.8125 11.2871 8.16211 10.9375 8.59375 10.9375H10.1562C10.5879 10.9375 10.9375 11.2871 10.9375 11.7188V15.625H14.1201C14.8174 15.625 15.165 16.4692 14.6704 16.9609ZM18.4082 5.12695L13.6279 0.341797C13.4082 0.12207 13.1104 0 12.7979 0H12.5V6.25H18.75V5.95215C18.75 5.64453 18.6279 5.34668 18.4082 5.12695Z" fill="white"/>
</svg>
