<svg width="24" height="18" viewBox="0 0 24 18" fill="none" xmlns="http://www.w3.org/2000/svg">
<path d="M19.4286 18L17.8286 16.425L19.6286 14.625H14.8571V12.375H19.6286L17.8286 10.575L19.4286 9L24 13.5L19.4286 18ZM2.28571 15.75C1.65714 15.75 1.11924 15.5299 0.672 15.0896C0.224 14.6486 0 14.1187 0 13.5V2.25C0 1.63125 0.224 1.10175 0.672 0.6615C1.11924 0.2205 1.65714 0 2.28571 0H17.1429C17.7714 0 18.3097 0.2205 18.7577 0.6615C19.205 1.10175 19.4286 1.63125 19.4286 2.25V6.75H17.1429V3.825L9.6 9L2.28571 3.85313V13.5H12.5714V15.75H2.28571ZM3.94286 2.25L9.6 6.24375L15.4286 2.25H3.94286Z" fill="#FB8B18"/>
</svg>
