<svg width="99" height="44" viewBox="0 0 99 44" fill="none" xmlns="http://www.w3.org/2000/svg">
<path d="M9.93881 42.5724C9.4766 42.6539 9.01935 42.702 8.56704 42.7168C7.21382 42.7821 6.16836 42.5657 5.43065 42.0675C4.71395 41.5657 4.29263 40.9576 4.16668 40.2433C4.02961 39.466 4.25216 38.701 4.83433 37.9485C5.43751 37.1923 6.37988 36.7012 7.66144 36.4752C8.06062 36.4048 8.48821 36.3727 8.94423 36.379C9.41754 36.3605 9.92113 36.3909 10.455 36.47C10.7219 36.5096 10.8683 36.6029 10.8943 36.75C10.9091 36.834 10.8535 36.8872 10.7274 36.9094C10.6014 36.9316 10.4926 36.9291 10.4012 36.9019C10.0428 36.8351 9.70233 36.8085 9.37979 36.8221C9.07454 36.8109 8.78536 36.8294 8.51224 36.8776C7.60884 37.0369 6.96185 37.4217 6.57125 38.0322C6.19795 38.6179 6.06502 39.2154 6.17245 39.8246C6.27617 40.4129 6.61225 40.906 7.18066 41.304C7.74908 41.7021 8.55852 41.8084 9.60898 41.6232C10.9326 41.3898 12.0974 40.8703 13.1034 40.0647C14.1305 39.2554 15.0612 38.2681 15.8955 37.1029C16.7818 35.8635 17.5364 34.4307 18.1595 32.8045C18.7789 31.1572 19.3711 29.4173 19.9361 27.5847C20.5184 25.7273 21.1724 23.8465 21.8981 21.9422C22.6238 20.038 23.5256 18.2109 24.6034 16.4612C24.8247 16.1189 25.0441 15.7661 25.2617 15.4028C25.4965 15.0148 25.7301 14.6812 25.9625 14.4019C25.2297 14.4228 24.4814 14.4789 23.7176 14.5703C22.9502 14.6406 22.1988 14.7406 21.4635 14.8703C20.371 15.0629 19.3403 15.2988 18.3714 15.578C17.4198 15.8324 16.4756 16.1289 15.5388 16.4673C14.5847 16.8305 13.5336 17.3192 12.3854 17.9332C11.2373 18.5472 10.1429 19.2818 9.1022 20.1368C8.07884 20.9671 7.23712 21.9062 6.57705 22.9541C5.938 23.9982 5.62765 25.1253 5.64602 26.3351C5.64353 26.4439 5.6429 26.5631 5.64412 26.6929C5.66264 26.7979 5.68116 26.903 5.69968 27.008C5.87009 27.9744 6.3365 28.7154 7.09893 29.2308C7.88236 29.7425 8.71526 29.9206 9.59765 29.765C10.2489 29.6502 10.8496 29.371 11.3996 28.9274C11.9459 28.4628 12.4106 27.9043 12.7938 27.2518C13.1733 26.5784 13.4175 25.8746 13.5263 25.1406C13.5103 24.9268 13.5758 24.8069 13.7229 24.781C13.8489 24.7588 13.9323 24.8632 13.9731 25.0943C14.115 26.0224 13.9827 26.8689 13.576 27.6338C13.1903 28.395 12.6403 29.0227 11.9259 29.517C11.2079 29.9902 10.4497 30.2972 9.65132 30.4379C8.83196 30.5824 8.02498 30.5514 7.23038 30.3449C6.43208 30.1174 5.74256 29.7083 5.16181 29.1175C4.57736 28.5057 4.19623 27.6955 4.01841 26.6871C3.81096 25.5106 3.91121 24.4206 4.31917 23.4172C4.74813 22.4101 5.38656 21.4852 6.23444 20.6425C7.07862 19.7787 8.0272 19.0158 9.0802 18.3535C10.1295 17.6703 11.1973 17.0921 12.2837 16.6189C13.3663 16.1247 14.3568 15.7226 15.2553 15.4125C16.1748 15.0988 17.1314 14.811 18.125 14.5491C19.1396 14.2836 20.1722 14.0582 21.2226 13.8729C22.126 13.7136 23.0368 13.5964 23.955 13.5211C24.8733 13.4459 25.7779 13.4163 26.6689 13.4325C26.9779 13.0964 27.3029 12.79 27.6441 12.5132C27.9852 12.2364 28.372 11.9733 28.8046 11.7237C29.0765 11.5458 29.286 11.4438 29.4331 11.4179C29.5591 11.3957 29.6295 11.4266 29.6444 11.5106C29.6703 11.6577 29.5337 11.8659 29.2346 12.1353C29.0814 12.2489 28.8972 12.4331 28.6821 12.6876C28.4671 12.9421 28.2365 13.2319 27.9906 13.5569C29.4154 13.6523 30.7334 13.9398 31.9444 14.4194C33.2679 14.9226 34.2521 15.5289 34.8971 16.2383C35.5631 16.9441 35.9702 17.7171 36.1184 18.5575C36.2888 19.5239 36.1651 20.5422 35.7472 21.6123C35.3257 22.6615 34.7144 23.6791 33.9135 24.6652C33.1125 25.6512 32.1985 26.5489 31.1715 27.3582C30.1407 28.1465 29.0926 28.7754 28.0273 29.2449C27.004 29.7069 25.9572 30.0973 24.887 30.416C23.8167 30.7346 22.8509 30.9699 21.9895 31.1218C21.8425 31.1478 21.6849 31.1755 21.5168 31.2052C21.3697 31.2311 21.2208 31.2465 21.0701 31.2515C20.5336 32.3858 19.9723 33.5029 19.3864 34.6027C18.7968 35.6815 18.1089 36.7559 17.3228 37.826C16.3599 39.1223 15.2457 40.1744 13.9801 40.9824C12.7145 41.7905 11.3674 42.3205 9.93881 42.5724ZM21.389 30.4804C22.1911 30.3606 23.0728 30.1401 24.0343 29.8189C24.9958 29.4978 25.9444 29.1031 26.88 28.6348C28.4298 27.8417 29.7726 26.8575 30.9085 25.6824C32.0654 24.5036 32.9201 23.2698 33.4727 21.9809C34.0463 20.6883 34.2349 19.4853 34.0386 18.3718C33.92 17.6995 33.639 17.0884 33.1954 16.5384C32.7728 15.9847 32.1513 15.5311 31.3307 15.1775C30.792 14.9476 30.1976 14.7708 29.5475 14.6471C28.8975 14.5234 28.2234 14.4473 27.5252 14.4188C26.7204 16.1204 25.9898 17.8739 25.3333 19.6793C24.6979 21.4811 24.0643 23.2933 23.4325 25.116C22.8218 26.935 22.1406 28.7231 21.389 30.4804ZM35.044 36.8784C34.1826 37.0303 33.4881 36.8386 32.9605 36.3035C32.4502 35.7436 32.1172 35.0224 31.9616 34.14C31.8171 33.3207 31.8247 32.442 31.9842 31.5041C32.15 30.4784 32.4566 29.5145 32.9041 28.6124C33.3726 27.7066 33.9214 26.9491 34.5505 26.34C35.1969 25.7061 35.8773 25.3262 36.5916 25.2002C37.453 25.0484 38.1351 25.2313 38.638 25.7492C39.1619 26.2634 39.5035 26.9722 39.6628 27.8756C39.7739 28.5058 39.7856 29.1862 39.6977 29.9165C39.6099 30.6469 39.4467 31.3797 39.2081 32.1149C39.5293 32.3399 39.9421 32.4079 40.4463 32.319C41.0346 32.2153 41.5054 31.9373 41.859 31.485C42.2125 31.0328 42.5036 30.2883 42.7324 29.2514C42.9845 29.207 43.1272 29.2793 43.1605 29.4684C42.9318 30.5052 42.5955 31.301 42.1518 31.8558C41.7254 32.3859 41.1111 32.7109 40.3091 32.8306C39.8258 32.9158 39.4026 32.8497 39.0393 32.6321C38.6214 33.7023 38.0621 34.6457 37.3613 35.4625C36.6778 36.2545 35.9053 36.7265 35.044 36.8784ZM35.3629 36.1073C35.8461 36.0221 36.2941 35.7373 36.707 35.2529C37.1161 34.7475 37.4739 34.197 37.7805 33.6014C38.0871 33.0058 38.291 32.5041 38.3924 32.0963C37.9488 31.5463 37.6696 31.1298 37.5547 30.8468C37.4571 30.539 37.3954 30.3116 37.3694 30.1646C37.2991 29.7654 37.3504 29.4422 37.5234 29.1951C37.6965 28.948 37.8881 28.8059 38.0982 28.7688C38.3923 28.717 38.6666 28.7986 38.9212 29.0136C38.9224 28.7751 38.9169 28.5595 38.9046 28.3667C38.8885 28.1529 38.8638 27.9515 38.8305 27.7624C38.7342 27.2161 38.5513 26.7935 38.282 26.4944C38.0299 26.1705 37.6938 26.0457 37.2736 26.1198C36.8324 26.1976 36.4036 26.4681 35.987 26.9315C35.5705 27.3949 35.1972 27.9806 34.8671 28.6887C34.5581 29.393 34.3145 30.1617 34.1365 30.9946C33.9782 31.694 33.8774 32.3509 33.834 32.965C33.787 33.5582 33.8061 34.0964 33.8913 34.5796C33.9839 35.1049 34.1525 35.5084 34.3972 35.7902C34.6418 36.072 34.9637 36.1777 35.3629 36.1073ZM44.6838 35.1786C43.9064 35.3157 43.3213 35.1914 42.9283 34.8058C42.5317 34.3992 42.2815 33.9017 42.1778 33.3135C42.1222 32.9983 42.0982 32.6776 42.1056 32.3514C42.1304 32.0004 42.1712 31.6791 42.2281 31.3875L43.3893 25.6263C43.4227 25.4471 43.4283 25.2945 43.4061 25.1684C43.369 24.9583 43.285 24.789 43.1541 24.6605C43.0194 24.5109 42.9255 24.4083 42.8723 24.3527L44.5945 23.9841C44.9059 23.9075 45.1339 23.9106 45.2785 23.9934C45.4404 24.0515 45.5324 24.1436 45.5547 24.2697C45.5769 24.3957 45.5441 24.6398 45.4563 25.0019C45.3351 25.5431 45.1626 26.2234 44.9388 27.0427C44.715 27.8621 44.495 28.7024 44.2786 29.5637C44.0832 30.4213 43.9206 31.219 43.7907 31.9568C43.6819 32.6908 43.6608 33.2469 43.7275 33.6251C43.7756 33.8982 43.8794 34.1182 44.0388 34.2851C44.2192 34.4482 44.4775 34.5002 44.8136 34.4409C45.2548 34.3631 45.6559 34.1191 46.0168 33.7088C46.395 33.2739 46.725 32.7499 47.0069 32.137C47.2887 31.5241 47.5316 30.8747 47.7357 30.1889C47.9607 29.4993 48.1406 28.8611 48.2753 28.2741C48.5275 28.2296 48.6702 28.3019 48.7035 28.491C48.586 29.0533 48.4185 29.7002 48.2009 30.4318C47.9833 31.1633 47.7076 31.8727 47.3738 32.5597C47.0574 33.2221 46.6717 33.7991 46.2169 34.2909C45.7831 34.779 45.272 35.0749 44.6838 35.1786ZM45.2269 21.858C44.9538 21.9061 44.6936 21.8437 44.4465 21.6706C44.2204 21.4939 44.0814 21.2584 44.0295 20.9643C43.9665 20.6071 44.058 20.2661 44.304 19.9411C44.5463 19.5951 44.846 19.3906 45.2031 19.3276C45.4973 19.2758 45.7661 19.3259 46.0095 19.4779C46.2529 19.6299 46.4006 19.853 46.4524 20.1472C46.5191 20.5253 46.4313 20.8874 46.1891 21.2334C45.9468 21.5794 45.6261 21.7876 45.2269 21.858ZM46.36 35.143C46.8459 33.476 47.304 31.8355 47.7343 30.2216C48.1609 28.5867 48.6215 27.0216 49.116 25.5264C49.4028 24.6959 49.6674 24.1077 49.9096 23.7617C50.1482 23.3947 50.5091 23.1686 50.9923 23.0834C51.1604 23.0538 51.3445 23.0538 51.5447 23.0835C51.7412 23.0922 51.934 23.0798 52.123 23.0465C52.2491 23.0243 52.3418 22.9971 52.4011 22.965C52.1366 23.1849 51.822 23.6736 51.4574 24.4311C51.11 25.1639 50.7707 26.0036 50.4393 26.9502C50.108 27.8968 49.8199 28.7816 49.5751 29.6046C49.8891 29.051 50.2241 28.4937 50.5801 27.9327C50.9361 27.3717 51.3378 26.8243 51.7852 26.2905C52.2116 25.7603 52.7308 25.2031 53.3426 24.6186C53.9717 24.0095 54.5946 23.488 55.2113 23.0544C55.8281 22.6207 56.336 22.3686 56.7352 22.2982C56.8822 22.2723 56.9891 22.2643 57.0559 22.2742C57.0559 22.2742 56.9774 22.5047 56.8204 22.9656C56.6596 23.4055 56.46 23.9931 56.2214 24.7284C56.0001 25.4389 55.7775 26.2039 55.5537 27.0232C55.3262 27.8215 55.1265 28.5932 54.9546 29.3384C54.8001 30.0588 54.7215 30.6576 54.719 31.1346C54.7041 31.4188 54.717 31.6765 54.7578 31.9076C54.8171 32.2438 54.919 32.4532 55.0636 32.5361C55.2081 32.6189 55.354 32.6473 55.501 32.6214C55.9002 32.551 56.2784 32.3002 56.6356 31.8689C56.9928 31.4377 57.3123 30.9156 57.5942 30.3027C57.8933 29.6651 58.1554 29.0015 58.3804 28.3119C58.6055 27.6224 58.7854 26.9841 58.9201 26.3971C59.1722 26.3527 59.315 26.425 59.3483 26.6141C59.2172 27.222 59.0342 27.9042 58.7993 28.6605C58.5817 29.392 58.306 30.1014 57.9723 30.7884C57.6595 31.4718 57.2757 32.0593 56.8209 32.5511C56.366 33.0429 55.834 33.3425 55.2247 33.45C54.8045 33.524 54.3374 33.4548 53.8233 33.2421C53.3303 33.0258 53.0134 32.5185 52.8726 31.7201C52.8318 31.489 52.8103 31.2437 52.8078 30.9842C52.8017 30.7037 52.8233 30.3966 52.8728 30.0629C52.9668 29.6131 53.0867 29.1262 53.2326 28.6022C53.3785 28.0783 53.64 27.3498 54.0171 26.4168C54.1234 26.1598 54.1759 25.9664 54.1747 25.8366C54.1945 25.7032 54.197 25.5944 54.1822 25.5104C54.1377 25.2583 53.9999 25.1526 53.7688 25.1933C53.5798 25.2267 53.3147 25.3817 52.9735 25.6585C52.6534 25.9316 52.2666 26.3789 51.8129 27.0004C51.3766 27.5973 50.8723 28.4227 50.3 29.4768C49.7486 30.5271 49.1596 32.0391 48.5327 34.0126C48.4338 34.3116 48.2917 34.4883 48.1063 34.5427C47.9419 34.5933 47.704 34.6569 47.3926 34.7335C47.1862 34.7915 46.9885 34.8372 46.7994 34.8706C46.614 34.9249 46.4676 35.0157 46.36 35.143ZM63.5785 14.6903C63.3758 15.1377 63.1601 15.6956 62.9314 16.3641C62.7027 17.0327 62.4912 17.6765 62.2971 18.2956C62.124 18.911 61.9899 19.3788 61.8947 19.6988L64.794 19.1876C64.8088 19.2716 64.7908 19.4156 64.7401 19.6195C64.7105 19.8197 64.598 19.9803 64.4027 20.1014L61.661 20.5849C61.5089 21.1966 61.3352 21.9312 61.1398 22.7888C60.9654 23.6428 60.7966 24.5282 60.6334 25.4451C60.4911 26.3584 60.3816 27.2117 60.3049 28.0051C60.2455 28.7737 60.2565 29.3892 60.338 29.8514C60.4491 30.4817 60.6165 30.9395 60.8402 31.225C61.0601 31.4895 61.3907 31.5829 61.8319 31.5051C62.3991 31.4051 62.8972 31.0356 63.3261 30.3968C63.7513 29.7369 64.1209 28.9461 64.435 28.0242C64.77 27.0986 65.042 26.1842 65.251 25.2808C65.5031 25.2364 65.6458 25.3087 65.6791 25.4978C65.5481 26.1058 65.3737 26.7755 65.1561 27.5071C64.9385 28.2387 64.6647 28.9585 64.3346 29.6666C64.0219 30.3499 63.6276 30.9393 63.1517 31.4348C62.6932 31.9056 62.1382 32.1984 61.487 32.3133C60.6046 32.4689 59.9632 32.3328 59.5629 31.9052C59.1588 31.4565 58.8883 30.8435 58.7512 30.0662C58.6512 29.4989 58.6358 28.7976 58.7051 27.9622C58.7708 27.1058 58.8747 26.221 59.0169 25.3077C59.1802 24.3908 59.3441 23.5387 59.5085 22.7515C59.6693 21.9434 59.7985 21.3248 59.8962 20.896L57.8793 21.2517C57.8497 21.0836 57.8917 20.8921 58.0055 20.677C58.1192 20.462 58.2601 20.3397 58.4282 20.3101L60.0984 20.0156C60.2072 19.6498 60.3222 19.1962 60.4434 18.655C60.5856 18.11 60.792 17.4995 61.0628 16.8236C61.289 16.2638 61.6178 15.7943 62.0491 15.4149C62.5015 15.0319 63.0113 14.7904 63.5785 14.6903ZM67.8933 31.5736C67.5572 31.6328 67.2656 31.576 67.0184 31.4029C66.7713 31.2299 66.6199 30.9858 66.5644 30.6706C66.4903 30.2504 66.5849 29.8655 66.8481 29.5158C67.1324 29.1624 67.4636 28.9524 67.8418 28.8857C68.178 28.8264 68.4696 28.8833 68.7167 29.0563C68.9602 29.2084 69.1097 29.442 69.1652 29.7571C69.2356 30.1563 69.141 30.5412 68.8815 30.9119C68.6219 31.2826 68.2925 31.5032 67.8933 31.5736ZM74.8892 30.2425C74.1119 30.3796 73.4273 30.3053 72.8354 30.0198C72.2608 29.7095 71.7918 29.2615 71.4286 28.6757C71.0653 28.0898 70.8207 27.4398 70.6948 26.7254C70.554 25.9271 70.5504 24.9854 70.6841 23.9004C70.8177 22.8154 71.0613 21.6785 71.4149 20.4897C71.7895 19.2972 72.2537 18.1214 72.8075 16.9623C73.3613 15.8031 73.9862 14.7398 74.6821 13.7723C75.3953 12.78 76.161 11.9626 76.9792 11.3201C77.7973 10.6776 78.6476 10.2786 79.53 10.123C80.6435 9.92666 81.4715 10.1381 82.0139 10.7573C82.5736 11.3518 82.9406 12.1428 83.1147 13.1302C83.2629 13.9706 83.2949 14.9506 83.2107 16.0702C83.1228 17.1688 82.9286 18.3403 82.6281 19.5848C82.3449 20.8045 81.9617 22.0093 81.4783 23.1993C80.9949 24.3894 80.4195 25.4873 79.752 26.4931C79.1056 27.4953 78.3751 28.3281 77.5606 28.9916C76.7461 29.6552 75.8557 30.0721 74.8892 30.2425ZM75.1563 29.5456C75.8706 29.4196 76.5472 29.0187 77.1863 28.3428C77.8216 27.6459 78.4044 26.7741 78.9347 25.7274C79.4613 24.6598 79.9205 23.5173 80.3125 22.3001C80.7217 21.0582 81.0574 19.8292 81.3195 18.6132C81.578 17.3762 81.7481 16.2523 81.8298 15.2414C81.9078 14.2095 81.8912 13.3784 81.7801 12.7482C81.6726 12.1389 81.4626 11.6235 81.15 11.2021C80.8337 10.7596 80.3394 10.5977 79.6671 10.7162C78.9738 10.8385 78.3095 11.248 77.6742 11.9449C77.0389 12.6418 76.4475 13.526 75.8998 14.5973C75.3695 15.644 74.8893 16.7901 74.459 18.0358C74.0288 19.2814 73.6721 20.5141 73.3889 21.7338C73.1058 22.9535 72.9128 24.0706 72.8101 25.0852C72.7037 26.0788 72.7023 26.8697 72.8061 27.458C72.9209 28.1092 73.1575 28.6524 73.5158 29.0875C73.8741 29.5225 74.421 29.6752 75.1563 29.5456ZM90.4573 27.4974C90.2262 27.5382 89.8648 27.5153 89.3729 27.4287C88.8848 27.3631 88.3596 27.2716 87.7973 27.1541C87.2313 27.0157 86.7006 26.8926 86.205 26.785C85.7268 26.6527 85.3857 26.5612 85.1818 26.5105L83.313 28.6272C83.2363 28.6841 83.1294 28.6921 82.9923 28.6513C82.8551 28.6105 82.8001 28.5443 82.8273 28.4529C82.8409 28.4072 82.9652 28.1903 83.2 27.8023C83.4312 27.3933 83.7093 26.9435 84.0344 26.4529C84.3347 25.945 84.6129 25.4952 84.8687 25.1035C85.1246 24.7118 85.2717 24.5017 85.31 24.4733L85.5936 24.4233C85.7197 24.4011 85.8704 24.3962 86.0459 24.4086C86.4897 23.8537 87.0545 23.1259 87.7405 22.2251C88.4265 21.3243 89.1397 20.3321 89.8801 19.2484C90.6205 18.1647 91.3047 17.0692 91.9326 15.962C92.5779 14.8301 93.073 13.768 93.4179 12.7757C93.7591 11.7624 93.8668 10.8986 93.7408 10.1843C93.6519 9.68003 93.4524 9.34695 93.1422 9.18502C92.832 9.02308 92.4353 8.98472 91.9521 9.06992C91.1538 9.21069 90.4543 9.60482 89.8536 10.2523C89.2529 10.8998 88.7584 11.6585 88.3703 12.5284C87.9994 13.3737 87.7386 14.167 87.5877 14.9085C87.5605 14.9999 87.5259 15.0494 87.4839 15.0568C87.3689 15.142 87.2429 15.1643 87.1057 15.1235C87.0451 15.0258 87.0217 14.9541 87.0353 14.9084C87.2084 13.9247 87.5218 12.938 87.9755 11.9482C88.4465 10.9336 89.0713 10.0545 89.85 9.31061C90.6287 8.56676 91.5537 8.10037 92.6252 7.91145C93.4235 7.77067 94.1366 7.88323 94.7643 8.24912C95.4094 8.59029 95.8078 9.19157 95.9597 10.0529C96.0597 10.6202 95.954 11.3104 95.6424 12.1235C95.3309 12.9366 94.8797 13.8177 94.2889 14.7667C93.698 15.7157 93.0441 16.6758 92.3272 17.6471C91.6103 18.6183 90.886 19.5476 90.1543 20.4348C89.4226 21.322 88.7514 22.1227 88.1408 22.8369C87.5265 23.5301 87.0494 24.08 86.7095 24.4865C86.9345 24.5335 87.265 24.6268 87.7012 24.7665C88.1338 24.8852 88.5996 25.0089 89.0989 25.1375C89.5981 25.2661 90.0498 25.3706 90.4539 25.451C90.879 25.5276 91.1861 25.5493 91.3752 25.516C91.8164 25.4382 92.2075 25.2609 92.5487 24.9841C92.9071 24.6826 93.2179 24.357 93.4812 24.0073C93.7445 23.6576 93.9608 23.3487 94.1301 23.0806C94.3168 22.7877 94.4503 22.6234 94.5306 22.5875C94.5689 22.5591 94.6252 22.5709 94.6993 22.6228C94.7944 22.671 94.8408 22.7495 94.8383 22.8582C94.6417 23.2178 94.3809 23.6429 94.0558 24.1335C93.7518 24.6203 93.3933 25.106 92.9805 25.5903C92.5887 26.071 92.1752 26.4905 91.7402 26.8488C91.3051 27.2072 90.8775 27.4234 90.4573 27.4974Z" fill="#FB8B18"/>
</svg>
