<svg width="98" height="44" viewBox="0 0 98 44" fill="none" xmlns="http://www.w3.org/2000/svg">
<path d="M9.93881 42.2623C9.4766 42.3438 9.01935 42.3919 8.56704 42.4067C7.21382 42.472 6.16836 42.2556 5.43065 41.7575C4.71395 41.2556 4.29263 40.6476 4.16668 39.9332C4.02961 39.1559 4.25216 38.391 4.83433 37.6384C5.43751 36.8822 6.37988 36.3911 7.66144 36.1651C8.06062 36.0947 8.48821 36.0627 8.94423 36.0689C9.41754 36.0504 9.92113 36.0808 10.455 36.16C10.7219 36.1995 10.8683 36.2929 10.8943 36.4399C10.9091 36.524 10.8535 36.5771 10.7274 36.5993C10.6014 36.6216 10.4926 36.6191 10.4012 36.5919C10.0428 36.5251 9.70233 36.4985 9.37979 36.512C9.07454 36.5009 8.78536 36.5194 8.51224 36.5675C7.60884 36.7268 6.96185 37.1117 6.57125 37.7221C6.19795 38.3078 6.06502 38.9053 6.17245 39.5146C6.27617 40.1028 6.61225 40.596 7.18066 40.994C7.74908 41.392 8.55852 41.4984 9.60898 41.3132C10.9326 41.0798 12.0974 40.5603 13.1034 39.7547C14.1305 38.9454 15.0612 37.9581 15.8955 36.7928C16.7818 35.5534 17.5364 34.1206 18.1595 32.4944C18.7789 30.8472 19.3711 29.1072 19.9361 27.2746C20.5184 25.4173 21.1724 23.5365 21.8981 21.6322C22.6238 19.7279 23.5256 17.9009 24.6034 16.1511C24.8247 15.8088 25.0441 15.4561 25.2617 15.0928C25.4965 14.7047 25.7301 14.3711 25.9625 14.0918C25.2297 14.1128 24.4814 14.1689 23.7176 14.2602C22.9502 14.3306 22.1988 14.4306 21.4635 14.5602C20.371 14.7528 19.3403 14.9887 18.3714 15.2679C17.4198 15.5223 16.4756 15.8188 15.5388 16.1573C14.5847 16.5205 13.5336 17.0091 12.3854 17.6231C11.2373 18.2372 10.1429 18.9717 9.1022 19.8267C8.07884 20.6571 7.23712 21.5961 6.57705 22.644C5.938 23.6882 5.62765 24.8152 5.64602 26.0251C5.64353 26.1338 5.6429 26.2531 5.64412 26.3828C5.66264 26.4879 5.68116 26.5929 5.69968 26.698C5.87009 27.6644 6.3365 28.4053 7.09893 28.9208C7.88236 29.4325 8.71526 29.6106 9.59765 29.455C10.2489 29.3401 10.8496 29.0609 11.3996 28.6173C11.9459 28.1528 12.4106 27.5942 12.7938 26.9418C13.1733 26.2683 13.4175 25.5646 13.5263 24.8305C13.5103 24.6167 13.5758 24.4969 13.7229 24.4709C13.8489 24.4487 13.9323 24.5531 13.9731 24.7842C14.115 25.7123 13.9827 26.5589 13.576 27.3238C13.1903 28.085 12.6403 28.7127 11.9259 29.2069C11.2079 29.6801 10.4497 29.9871 9.65132 30.1279C8.83196 30.2724 8.02498 30.2413 7.23038 30.0349C6.43208 29.8074 5.74256 29.3982 5.16181 28.8074C4.57736 28.1956 4.19623 27.3855 4.01841 26.377C3.81096 25.2005 3.91121 24.1106 4.31917 23.1071C4.74813 22.1 5.38656 21.1751 6.23444 20.3324C7.07862 19.4687 8.0272 18.7057 9.0802 18.0435C10.1295 17.3602 11.1973 16.782 12.2837 16.3088C13.3663 15.8147 14.3568 15.4125 15.2553 15.1025C16.1748 14.7887 17.1314 14.5009 18.125 14.2391C19.1396 13.9735 20.1722 13.7481 21.2226 13.5629C22.126 13.4036 23.0368 13.2863 23.955 13.2111C24.8733 13.1358 25.7779 13.1063 26.6689 13.1225C26.9779 12.7864 27.3029 12.4799 27.6441 12.2032C27.9852 11.9264 28.372 11.6632 28.8046 11.4136C29.0765 11.2357 29.286 11.1338 29.4331 11.1079C29.5591 11.0856 29.6295 11.1165 29.6444 11.2006C29.6703 11.3476 29.5337 11.5559 29.2346 11.8252C29.0814 11.9389 28.8972 12.123 28.6821 12.3775C28.4671 12.6321 28.2365 12.9219 27.9906 13.2468C29.4154 13.3422 30.7334 13.6297 31.9444 14.1094C33.2679 14.6125 34.2521 15.2188 34.8971 15.9283C35.5631 16.634 35.9702 17.4071 36.1184 18.2474C36.2888 19.2139 36.1651 20.2321 35.7472 21.3023C35.3257 22.3514 34.7144 23.369 33.9135 24.3551C33.1125 25.3412 32.1985 26.2388 31.1715 27.0482C30.1407 27.8365 29.0926 28.4653 28.0273 28.9348C27.004 29.3968 25.9572 29.7872 24.887 30.1059C23.8167 30.4246 22.8509 30.6599 21.9895 30.8118C21.8425 30.8377 21.6849 30.8655 21.5168 30.8951C21.3697 30.921 21.2208 30.9365 21.0701 30.9414C20.5336 32.0758 19.9723 33.1929 19.3864 34.2927C18.7968 35.3714 18.1089 36.4459 17.3228 37.516C16.3599 38.8122 15.2457 39.8643 13.9801 40.6724C12.7145 41.4804 11.3674 42.0104 9.93881 42.2623ZM21.389 30.1703C22.1911 30.0505 23.0728 29.8301 24.0343 29.5089C24.9958 29.1877 25.9444 28.793 26.88 28.3248C28.4298 27.5316 29.7726 26.5475 30.9085 25.3724C32.0654 24.1936 32.9201 22.9597 33.4727 21.6709C34.0463 20.3783 34.2349 19.1753 34.0386 18.0618C33.92 17.3895 33.639 16.7783 33.1954 16.2283C32.7728 15.6746 32.1513 15.221 31.3307 14.8674C30.792 14.6375 30.1976 14.4607 29.5475 14.337C28.8975 14.2134 28.2234 14.1373 27.5252 14.1087C26.7204 15.8103 25.9898 17.5639 25.3333 19.3693C24.6979 21.171 24.0643 22.9832 23.4325 24.8059C22.8218 26.625 22.1406 28.4131 21.389 30.1703ZM35.044 36.5683C34.1826 36.7202 33.4881 36.5286 32.9605 35.9934C32.4502 35.4335 32.1172 34.7124 31.9616 33.83C31.8171 33.0106 31.8247 32.132 31.9842 31.194C32.15 30.1683 32.4566 29.2044 32.9041 28.3023C33.3726 27.3966 33.9214 26.6391 34.5505 26.0299C35.1969 25.396 35.8773 25.0161 36.5916 24.8902C37.453 24.7383 38.1351 24.9213 38.638 25.4392C39.1619 25.9533 39.5035 26.6621 39.6628 27.5655C39.7739 28.1958 39.7856 28.8761 39.6977 29.6064C39.6099 30.3368 39.4467 31.0696 39.2081 31.8049C39.5293 32.0298 39.9421 32.0979 40.4463 32.009C41.0346 31.9052 41.5054 31.6272 41.859 31.175C42.2125 30.7227 42.5036 29.9782 42.7324 28.9414C42.9845 28.8969 43.1272 28.9693 43.1605 29.1583C42.9318 30.1951 42.5955 30.991 42.1518 31.5458C41.7254 32.0759 41.1111 32.4008 40.3091 32.5206C39.8258 32.6058 39.4026 32.5396 39.0393 32.322C38.6214 33.3922 38.0621 34.3357 37.3613 35.1524C36.6778 35.9445 35.9053 36.4165 35.044 36.5683ZM35.3629 35.7972C35.8461 35.712 36.2941 35.4272 36.707 34.9429C37.1161 34.4375 37.4739 33.887 37.7805 33.2914C38.0871 32.6957 38.291 32.194 38.3924 31.7862C37.9488 31.2362 37.6696 30.8197 37.5547 30.5367C37.4571 30.229 37.3954 30.0016 37.3694 29.8545C37.2991 29.4553 37.3504 29.1322 37.5234 28.8851C37.6965 28.6379 37.8881 28.4958 38.0982 28.4588C38.3923 28.4069 38.6666 28.4885 38.9212 28.7036C38.9224 28.4651 38.9169 28.2494 38.9046 28.0566C38.8885 27.8428 38.8638 27.6414 38.8305 27.4523C38.7342 26.9061 38.5513 26.4834 38.282 26.1843C38.0299 25.8605 37.6938 25.7356 37.2736 25.8097C36.8324 25.8875 36.4036 26.1581 35.987 26.6215C35.5705 27.0848 35.1972 27.6705 34.8671 28.3786C34.5581 29.083 34.3145 29.8516 34.1365 30.6845C33.9782 31.384 33.8774 32.0408 33.834 32.655C33.787 33.2482 33.8061 33.7864 33.8913 34.2696C33.9839 34.7948 34.1525 35.1983 34.3972 35.4801C34.6418 35.7619 34.9637 35.8676 35.3629 35.7972ZM44.6838 34.8686C43.9064 35.0056 43.3213 34.8814 42.9283 34.4957C42.5317 34.0891 42.2815 33.5917 42.1778 33.0034C42.1222 32.6883 42.0982 32.3676 42.1056 32.0413C42.1304 31.6903 42.1712 31.369 42.2281 31.0774L43.3893 25.3162C43.4227 25.137 43.4283 24.9844 43.4061 24.8584C43.369 24.6483 43.285 24.479 43.1541 24.3504C43.0194 24.2009 42.9255 24.0983 42.8723 24.0427L44.5945 23.674C44.9059 23.5974 45.1339 23.6006 45.2785 23.6834C45.4404 23.7415 45.5324 23.8336 45.5547 23.9596C45.5769 24.0857 45.5441 24.3297 45.4563 24.6918C45.3351 25.2331 45.1626 25.9134 44.9388 26.7327C44.715 27.552 44.495 28.3923 44.2786 29.2536C44.0832 30.1113 43.9206 30.909 43.7907 31.6467C43.6819 32.3808 43.6608 32.9369 43.7275 33.315C43.7756 33.5882 43.8794 33.8081 44.0388 33.975C44.2192 34.1382 44.4775 34.1901 44.8136 34.1308C45.2548 34.053 45.6559 33.809 46.0168 33.3988C46.395 32.9638 46.725 32.4399 47.0069 31.827C47.2887 31.214 47.5316 30.5647 47.7357 29.8788C47.9607 29.1893 48.1406 28.551 48.2753 27.964C48.5275 27.9196 48.6702 27.9919 48.7035 28.181C48.586 28.7432 48.4185 29.3902 48.2009 30.1217C47.9833 30.8533 47.7076 31.5626 47.3738 32.2497C47.0574 32.912 46.6717 33.4891 46.2169 33.9809C45.7831 34.469 45.272 34.7649 44.6838 34.8686ZM45.2269 21.5479C44.9538 21.5961 44.6936 21.5336 44.4465 21.3606C44.2204 21.1838 44.0814 20.9484 44.0295 20.6542C43.9665 20.2971 44.058 19.956 44.304 19.631C44.5463 19.285 44.846 19.0806 45.2031 19.0176C45.4973 18.9657 45.7661 19.0158 46.0095 19.1678C46.2529 19.3199 46.4006 19.543 46.4524 19.8371C46.5191 20.2153 46.4313 20.5773 46.1891 20.9233C45.9468 21.2693 45.6261 21.4775 45.2269 21.5479ZM46.36 34.833C46.8459 33.1659 47.304 31.5255 47.7343 29.9115C48.1609 28.2766 48.6215 26.7116 49.116 25.2163C49.4028 24.3859 49.6674 23.7977 49.9096 23.4517C50.1482 23.0847 50.5091 22.8586 50.9923 22.7734C51.1604 22.7437 51.3445 22.7438 51.5447 22.7734C51.7412 22.7821 51.934 22.7698 52.123 22.7364C52.2491 22.7142 52.3418 22.687 52.4011 22.6549C52.1366 22.8749 51.822 23.3636 51.4574 24.1211C51.11 24.8539 50.7707 25.6935 50.4393 26.6401C50.108 27.5867 49.8199 28.4715 49.5751 29.2945C49.8891 28.7409 50.2241 28.1836 50.5801 27.6226C50.9361 27.0616 51.3378 26.5142 51.7852 25.9804C52.2116 25.4503 52.7308 24.893 53.3426 24.3086C53.9717 23.6994 54.5946 23.178 55.2113 22.7443C55.8281 22.3106 56.336 22.0586 56.7352 21.9882C56.8822 21.9623 56.9891 21.9542 57.0559 21.9641C57.0559 21.9641 56.9774 22.1946 56.8204 22.6555C56.6596 23.0955 56.46 23.6831 56.2214 24.4183C56.0001 25.1289 55.7775 25.8938 55.5537 26.7131C55.3262 27.5114 55.1265 28.2832 54.9546 29.0283C54.8001 29.7488 54.7215 30.3475 54.719 30.8245C54.7041 31.1088 54.717 31.3664 54.7578 31.5975C54.8171 31.9337 54.919 32.1432 55.0636 32.226C55.2081 32.3088 55.354 32.3373 55.501 32.3113C55.9002 32.2409 56.2784 31.9901 56.6356 31.5589C56.9928 31.1276 57.3123 30.6056 57.5942 29.9926C57.8933 29.355 58.1554 28.6914 58.3804 28.0019C58.6055 27.3123 58.7854 26.674 58.9201 26.087C59.1722 26.0426 59.315 26.1149 59.3483 26.304C59.2172 26.912 59.0342 27.5941 58.7993 28.3504C58.5817 29.082 58.306 29.7913 57.9723 30.4784C57.6595 31.1617 57.2757 31.7493 56.8209 32.2411C56.366 32.7329 55.834 33.0325 55.2247 33.1399C54.8045 33.214 54.3374 33.1447 53.8233 32.9321C53.3303 32.7158 53.0134 32.2084 52.8726 31.4101C52.8318 31.179 52.8103 30.9336 52.8078 30.6741C52.8017 30.3936 52.8233 30.0865 52.8728 29.7528C52.9668 29.303 53.0867 28.8161 53.2326 28.2922C53.3785 27.7682 53.64 27.0397 54.0171 26.1068C54.1234 25.8497 54.1759 25.6563 54.1747 25.5266C54.1945 25.3931 54.197 25.2844 54.1822 25.2003C54.1377 24.9482 53.9999 24.8425 53.7688 24.8833C53.5798 24.9166 53.3147 25.0717 52.9735 25.3484C52.6534 25.6215 52.2666 26.0688 51.8129 26.6904C51.3766 27.2872 50.8723 28.1127 50.3 29.1667C49.7486 30.2171 49.1596 31.729 48.5327 33.7025C48.4338 34.0015 48.2917 34.1782 48.1063 34.2326C47.9419 34.2832 47.704 34.3469 47.3926 34.4234C47.1862 34.4815 46.9885 34.5272 46.7994 34.5605C46.614 34.6149 46.4676 34.7057 46.36 34.833ZM63.5785 14.3803C63.3758 14.8276 63.1601 15.3855 62.9314 16.0541C62.7027 16.7226 62.4912 17.3664 62.2971 17.9856C62.124 18.601 61.9899 19.0687 61.8947 19.3888L64.794 18.8775C64.8088 18.9616 64.7908 19.1055 64.7401 19.3094C64.7105 19.5096 64.598 19.6703 64.4027 19.7914L61.661 20.2748C61.5089 20.8865 61.3352 21.6212 61.1398 22.4788C60.9654 23.3327 60.7966 24.2181 60.6334 25.1351C60.4911 26.0483 60.3816 26.9016 60.3049 27.695C60.2455 28.4637 60.2565 29.0791 60.338 29.5413C60.4491 30.1716 60.6165 30.6295 60.8402 30.915C61.0601 31.1795 61.3907 31.2728 61.8319 31.195C62.3991 31.095 62.8972 30.7256 63.3261 30.0867C63.7513 29.4269 64.1209 28.636 64.435 27.7141C64.77 26.7886 65.042 25.8741 65.251 24.9708C65.5031 24.9263 65.6458 24.9986 65.6791 25.1877C65.5481 25.7957 65.3737 26.4655 65.1561 27.197C64.9385 27.9286 64.6647 28.6484 64.3346 29.3565C64.0219 30.0399 63.6276 30.6293 63.1517 31.1248C62.6932 31.5956 62.1382 31.8884 61.487 32.0032C60.6046 32.1588 59.9632 32.0228 59.5629 31.5951C59.1588 31.1465 58.8883 30.5335 58.7512 29.7561C58.6512 29.1889 58.6358 28.4876 58.7051 27.6522C58.7708 26.7958 58.8747 25.9109 59.0169 24.9977C59.1802 24.0807 59.3441 23.2287 59.5085 22.4415C59.6693 21.6333 59.7985 21.0148 59.8962 20.586L57.8793 20.9416C57.8497 20.7735 57.8917 20.582 58.0055 20.367C58.1192 20.152 58.2601 20.0296 58.4282 20L60.0984 19.7055C60.2072 19.3397 60.3222 18.8862 60.4434 18.3449C60.5856 17.7999 60.792 17.1895 61.0628 16.5135C61.289 15.9538 61.6178 15.4842 62.0491 15.1049C62.5015 14.7218 63.0113 14.4803 63.5785 14.3803ZM67.8933 31.2635C67.5572 31.3228 67.2656 31.2659 67.0184 31.0928C66.7713 30.9198 66.6199 30.6757 66.5644 30.3606C66.4903 29.9404 66.5849 29.5554 66.8481 29.2057C67.1324 28.8523 67.4636 28.6423 67.8418 28.5756C68.178 28.5164 68.4696 28.5732 68.7167 28.7463C68.9602 28.8983 69.1097 29.1319 69.1652 29.4471C69.2356 29.8462 69.141 30.2312 68.8815 30.6019C68.6219 30.9726 68.2925 31.1931 67.8933 31.2635ZM74.8892 29.9325C74.1119 30.0695 73.4273 29.9953 72.8354 29.7097C72.2608 29.3995 71.7918 28.9514 71.4286 28.3656C71.0653 27.7798 70.8207 27.1297 70.6948 26.4154C70.554 25.617 70.5504 24.6754 70.6841 23.5903C70.8177 22.5053 71.0613 21.3684 71.4149 20.1796C71.7895 18.9871 72.2537 17.8113 72.8075 16.6522C73.3613 15.4931 73.9862 14.4298 74.6821 13.4622C75.3953 12.47 76.161 11.6526 76.9792 11.0101C77.7973 10.3676 78.6476 9.96853 79.53 9.81294C80.6435 9.6166 81.4715 9.82804 82.0139 10.4473C82.5736 11.0418 82.9406 11.8327 83.1147 12.8202C83.2629 13.6605 83.2949 14.6405 83.2107 15.7602C83.1228 16.8588 82.9286 18.0303 82.6281 19.2747C82.3449 20.4944 81.9617 21.6993 81.4783 22.8893C80.9949 24.0793 80.4195 25.1772 79.752 26.1831C79.1056 27.1852 78.3751 28.0181 77.5606 28.6816C76.7461 29.3451 75.8557 29.7621 74.8892 29.9325ZM75.1563 29.2355C75.8706 29.1096 76.5472 28.7086 77.1863 28.0327C77.8216 27.3358 78.4044 26.464 78.9347 25.4174C79.4613 24.3497 79.9205 23.2073 80.3125 21.9901C80.7217 20.7481 81.0574 19.5192 81.3195 18.3032C81.578 17.0662 81.7481 15.9422 81.8298 14.9314C81.9078 13.8995 81.8912 13.0684 81.7801 12.4381C81.6726 11.8288 81.4626 11.3135 81.15 10.892C80.8337 10.4496 80.3394 10.2876 79.6671 10.4061C78.9738 10.5284 78.3095 10.938 77.6742 11.6349C77.0389 12.3318 76.4475 13.2159 75.8998 14.2873C75.3695 15.3339 74.8893 16.4801 74.459 17.7257C74.0288 18.9714 73.6721 20.204 73.3889 21.4237C73.1058 22.6434 72.9128 23.7606 72.8101 24.7752C72.7037 25.7687 72.7023 26.5596 72.8061 27.1479C72.9209 27.7992 73.1575 28.3424 73.5158 28.7774C73.8741 29.2125 74.421 29.3652 75.1563 29.2355ZM85.6876 27.736C85.5616 27.7582 85.4615 27.7434 85.3873 27.6914C85.3132 27.6395 85.2829 27.5907 85.2965 27.545C86.2732 24.73 87.2517 21.9254 88.2321 19.1314C89.2088 16.3164 90.1873 13.5118 91.1677 10.7178C90.478 11.5976 89.7722 12.4478 89.0504 13.2682C88.3249 14.0677 87.5394 14.8344 86.694 15.5684C86.6557 15.5968 86.5945 15.6184 86.5105 15.6332C86.4648 15.6196 86.4259 15.5832 86.3937 15.5238C86.3826 15.4608 86.3734 15.4083 86.366 15.3663C86.3511 15.2822 86.3697 15.2031 86.4216 15.129C87.1681 14.3258 88.0049 13.4201 88.9319 12.4118C89.8552 11.3825 90.666 10.3297 91.3644 9.25342C91.5511 8.96056 91.7414 8.68871 91.9355 8.43786C92.1295 8.18702 92.3508 8.02887 92.5992 7.96341L93.5594 7.69661C93.5977 7.66819 93.6292 7.66263 93.654 7.67994C93.696 7.67253 93.738 7.66512 93.78 7.65771L93.8078 7.81528L87.2874 27.2264C87.1552 27.3364 86.9 27.4247 86.5218 27.4914C86.1474 27.5791 85.8693 27.6606 85.6876 27.736Z" fill="#FB8B18"/>
</svg>
