<svg width="98" height="44" viewBox="0 0 98 44" fill="none" xmlns="http://www.w3.org/2000/svg">
<path d="M9.93881 42.4024C9.4766 42.4839 9.01935 42.5321 8.56704 42.5468C7.21382 42.6122 6.16836 42.3957 5.43065 41.8976C4.71395 41.3958 4.29263 40.7877 4.16668 40.0734C4.02961 39.296 4.25216 38.5311 4.83433 37.7786C5.43751 37.0223 6.37988 36.5312 7.66144 36.3053C8.06062 36.2349 8.48821 36.2028 8.94423 36.2091C9.41754 36.1906 9.92113 36.2209 10.455 36.3001C10.7219 36.3397 10.8683 36.433 10.8943 36.5801C10.9091 36.6641 10.8535 36.7172 10.7274 36.7395C10.6014 36.7617 10.4926 36.7592 10.4012 36.732C10.0428 36.6652 9.70233 36.6386 9.37979 36.6522C9.07454 36.641 8.78536 36.6595 8.51224 36.7076C7.60884 36.8669 6.96185 37.2518 6.57125 37.8622C6.19795 38.448 6.06502 39.0455 6.17245 39.6547C6.27617 40.243 6.61225 40.7361 7.18066 41.1341C7.74908 41.5321 8.55852 41.6385 9.60898 41.4533C10.9326 41.2199 12.0974 40.7004 13.1034 39.8948C14.1305 39.0855 15.0612 38.0982 15.8955 36.933C16.7818 35.6936 17.5364 34.2608 18.1595 32.6345C18.7789 30.9873 19.3711 29.2474 19.9361 27.4147C20.5184 25.5574 21.1724 23.6766 21.8981 21.7723C22.6238 19.868 23.5256 18.041 24.6034 16.2913C24.8247 15.949 25.0441 15.5962 25.2617 15.2329C25.4965 14.8449 25.7301 14.5112 25.9625 14.232C25.2297 14.2529 24.4814 14.309 23.7176 14.4004C22.9502 14.4707 22.1988 14.5707 21.4635 14.7003C20.371 14.893 19.3403 15.1289 18.3714 15.408C17.4198 15.6625 16.4756 15.9589 15.5388 16.2974C14.5847 16.6606 13.5336 17.1492 12.3854 17.7633C11.2373 18.3773 10.1429 19.1118 9.1022 19.9669C8.07884 20.7972 7.23712 21.7363 6.57705 22.7842C5.938 23.8283 5.62765 24.9553 5.64602 26.1652C5.64353 26.2739 5.6429 26.3932 5.64412 26.523C5.66264 26.628 5.68116 26.7331 5.69968 26.8381C5.87009 27.8045 6.3365 28.5455 7.09893 29.0609C7.88236 29.5726 8.71526 29.7507 9.59765 29.5951C10.2489 29.4803 10.8496 29.2011 11.3996 28.7575C11.9459 28.2929 12.4106 27.7344 12.7938 27.0819C13.1733 26.4085 13.4175 25.7047 13.5263 24.9707C13.5103 24.7569 13.5758 24.637 13.7229 24.6111C13.8489 24.5888 13.9323 24.6933 13.9731 24.9244C14.115 25.8525 13.9827 26.699 13.576 27.4639C13.1903 28.2251 12.6403 28.8528 11.9259 29.347C11.2079 29.8203 10.4497 30.1272 9.65132 30.268C8.83196 30.4125 8.02498 30.3815 7.23038 30.175C6.43208 29.9475 5.74256 29.5383 5.16181 28.9475C4.57736 28.3357 4.19623 27.5256 4.01841 26.5172C3.81096 25.3407 3.91121 24.2507 4.31917 23.2473C4.74813 22.2401 5.38656 21.3152 6.23444 20.4725C7.07862 19.6088 8.0272 18.8458 9.0802 18.1836C10.1295 17.5003 11.1973 16.9221 12.2837 16.449C13.3663 15.9548 14.3568 15.5527 15.2553 15.2426C16.1748 14.9289 17.1314 14.641 18.125 14.3792C19.1396 14.1136 20.1722 13.8882 21.2226 13.703C22.126 13.5437 23.0368 13.4264 23.955 13.3512C24.8733 13.2759 25.7779 13.2464 26.6689 13.2626C26.9779 12.9265 27.3029 12.6201 27.6441 12.3433C27.9852 12.0665 28.372 11.8033 28.8046 11.5538C29.0765 11.3759 29.286 11.2739 29.4331 11.248C29.5591 11.2258 29.6295 11.2567 29.6444 11.3407C29.6703 11.4878 29.5337 11.696 29.2346 11.9654C29.0814 12.079 28.8972 12.2631 28.6821 12.5177C28.4671 12.7722 28.2365 13.062 27.9906 13.387C29.4154 13.4823 30.7334 13.7698 31.9444 14.2495C33.2679 14.7527 34.2521 15.359 34.8971 16.0684C35.5631 16.7741 35.9702 17.5472 36.1184 18.3876C36.2888 19.354 36.1651 20.3723 35.7472 21.4424C35.3257 22.4916 34.7144 23.5092 33.9135 24.4952C33.1125 25.4813 32.1985 26.379 31.1715 27.1883C30.1407 27.9766 29.0926 28.6055 28.0273 29.0749C27.004 29.537 25.9572 29.9273 24.887 30.246C23.8167 30.5647 22.8509 30.8 21.9895 30.9519C21.8425 30.9778 21.6849 31.0056 21.5168 31.0352C21.3697 31.0612 21.2208 31.0766 21.0701 31.0815C20.5336 32.2159 19.9723 33.333 19.3864 34.4328C18.7968 35.5116 18.1089 36.586 17.3228 37.6561C16.3599 38.9523 15.2457 40.0045 13.9801 40.8125C12.7145 41.6206 11.3674 42.1505 9.93881 42.4024ZM21.389 30.3104C22.1911 30.1907 23.0728 29.9702 24.0343 29.649C24.9958 29.3278 25.9444 28.9331 26.88 28.4649C28.4298 27.6717 29.7726 26.6876 30.9085 25.5125C32.0654 24.3337 32.9201 23.0999 33.4727 21.811C34.0463 20.5184 34.2349 19.3154 34.0386 18.2019C33.92 17.5296 33.639 16.9185 33.1954 16.3685C32.7728 15.8148 32.1513 15.3611 31.3307 15.0076C30.792 14.7776 30.1976 14.6008 29.5475 14.4772C28.8975 14.3535 28.2234 14.2774 27.5252 14.2489C26.7204 15.9505 25.9898 17.704 25.3333 19.5094C24.6979 21.3111 24.0643 23.1234 23.4325 24.9461C22.8218 26.7651 22.1406 28.5532 21.389 30.3104ZM35.044 36.7085C34.1826 36.8604 33.4881 36.6687 32.9605 36.1335C32.4502 35.5736 32.1172 34.8525 31.9616 33.9701C31.8171 33.1508 31.8247 32.2721 31.9842 31.3341C32.15 30.3084 32.4566 29.3446 32.9041 28.4425C33.3726 27.5367 33.9214 26.7792 34.5505 26.1701C35.1969 25.5362 35.8773 25.1563 36.5916 25.0303C37.453 24.8784 38.1351 25.0614 38.638 25.5793C39.1619 26.0935 39.5035 26.8022 39.6628 27.7056C39.7739 28.3359 39.7856 29.0162 39.6977 29.7466C39.6099 30.4769 39.4467 31.2097 39.2081 31.945C39.5293 32.17 39.9421 32.238 40.4463 32.1491C41.0346 32.0454 41.5054 31.7674 41.859 31.3151C42.2125 30.8629 42.5036 30.1183 42.7324 29.0815C42.9845 29.0371 43.1272 29.1094 43.1605 29.2985C42.9318 30.3353 42.5955 31.1311 42.1518 31.6859C41.7254 32.216 41.1111 32.5409 40.3091 32.6607C39.8258 32.7459 39.4026 32.6797 39.0393 32.4622C38.6214 33.5323 38.0621 34.4758 37.3613 35.2926C36.6778 36.0846 35.9053 36.5566 35.044 36.7085ZM35.3629 35.9374C35.8461 35.8522 36.2941 35.5674 36.707 35.083C37.1161 34.5776 37.4739 34.0271 37.7805 33.4315C38.0871 32.8359 38.291 32.3342 38.3924 31.9264C37.9488 31.3764 37.6696 30.9599 37.5547 30.6769C37.4571 30.3691 37.3954 30.1417 37.3694 29.9947C37.2991 29.5955 37.3504 29.2723 37.5234 29.0252C37.6965 28.7781 37.8881 28.636 38.0982 28.5989C38.3923 28.5471 38.6666 28.6287 38.9212 28.8437C38.9224 28.6052 38.9169 28.3896 38.9046 28.1968C38.8885 27.983 38.8638 27.7815 38.8305 27.5925C38.7342 27.0462 38.5513 26.6235 38.282 26.3244C38.0299 26.0006 37.6938 25.8758 37.2736 25.9498C36.8324 26.0276 36.4036 26.2982 35.987 26.7616C35.5705 27.225 35.1972 27.8107 34.8671 28.5188C34.5581 29.2231 34.3145 29.9918 34.1365 30.8247C33.9782 31.5241 33.8774 32.1809 33.834 32.7951C33.787 33.3883 33.8061 33.9265 33.8913 34.4097C33.9839 34.9349 34.1525 35.3385 34.3972 35.6203C34.6418 35.9021 34.9637 36.0078 35.3629 35.9374ZM44.6838 35.0087C43.9064 35.1458 43.3213 35.0215 42.9283 34.6359C42.5317 34.2292 42.2815 33.7318 42.1778 33.1435C42.1222 32.8284 42.0982 32.5077 42.1056 32.1815C42.1304 31.8305 42.1712 31.5092 42.2281 31.2175L43.3893 25.4564C43.4227 25.2772 43.4283 25.1246 43.4061 24.9985C43.369 24.7884 43.285 24.6191 43.1541 24.4906C43.0194 24.341 42.9255 24.2384 42.8723 24.1828L44.5945 23.8141C44.9059 23.7376 45.1339 23.7407 45.2785 23.8235C45.4404 23.8816 45.5324 23.9737 45.5547 24.0998C45.5769 24.2258 45.5441 24.4699 45.4563 24.832C45.3351 25.3732 45.1626 26.0535 44.9388 26.8728C44.715 27.6921 44.495 28.5324 44.2786 29.3938C44.0832 30.2514 43.9206 31.0491 43.7907 31.7868C43.6819 32.5209 43.6608 33.077 43.7275 33.4552C43.7756 33.7283 43.8794 33.9483 44.0388 34.1151C44.2192 34.2783 44.4775 34.3302 44.8136 34.271C45.2548 34.1932 45.6559 33.9491 46.0168 33.5389C46.395 33.104 46.725 32.58 47.0069 31.9671C47.2887 31.3542 47.5316 30.7048 47.7357 30.019C47.9607 29.3294 48.1406 28.6911 48.2753 28.1041C48.5275 28.0597 48.6702 28.132 48.7035 28.3211C48.586 28.8834 48.4185 29.5303 48.2009 30.2619C47.9833 30.9934 47.7076 31.7027 47.3738 32.3898C47.0574 33.0521 46.6717 33.6292 46.2169 34.121C45.7831 34.6091 45.272 34.905 44.6838 35.0087ZM45.2269 21.688C44.9538 21.7362 44.6936 21.6737 44.4465 21.5007C44.2204 21.3239 44.0814 21.0885 44.0295 20.7944C43.9665 20.4372 44.058 20.0961 44.304 19.7712C44.5463 19.4252 44.846 19.2207 45.2031 19.1577C45.4973 19.1059 45.7661 19.1559 46.0095 19.308C46.2529 19.46 46.4006 19.6831 46.4524 19.9772C46.5191 20.3554 46.4313 20.7175 46.1891 21.0635C45.9468 21.4095 45.6261 21.6176 45.2269 21.688ZM46.36 34.9731C46.8459 33.3061 47.304 31.6656 47.7343 30.0517C48.1609 28.4168 48.6215 26.8517 49.116 25.3564C49.4028 24.526 49.6674 23.9378 49.9096 23.5918C50.1482 23.2248 50.5091 22.9987 50.9923 22.9135C51.1604 22.8839 51.3445 22.8839 51.5447 22.9136C51.7412 22.9223 51.934 22.9099 52.123 22.8766C52.2491 22.8544 52.3418 22.8272 52.4011 22.7951C52.1366 23.015 51.822 23.5037 51.4574 24.2612C51.11 24.994 50.7707 25.8337 50.4393 26.7803C50.108 27.7268 49.8199 28.6116 49.5751 29.4347C49.8891 28.8811 50.2241 28.3238 50.5801 27.7627C50.9361 27.2017 51.3378 26.6543 51.7852 26.1205C52.2116 25.5904 52.7308 25.0332 53.3426 24.4487C53.9717 23.8395 54.5946 23.3181 55.2113 22.8844C55.8281 22.4507 56.336 22.1987 56.7352 22.1283C56.8822 22.1024 56.9891 22.0944 57.0559 22.1043C57.0559 22.1043 56.9774 22.3347 56.8204 22.7957C56.6596 23.2356 56.46 23.8232 56.2214 24.5585C56.0001 25.269 55.7775 26.034 55.5537 26.8533C55.3262 27.6516 55.1265 28.4233 54.9546 29.1685C54.8001 29.8889 54.7215 30.4877 54.719 30.9647C54.7041 31.2489 54.717 31.5066 54.7578 31.7377C54.8171 32.0738 54.919 32.2833 55.0636 32.3661C55.2081 32.449 55.354 32.4774 55.501 32.4515C55.9002 32.3811 56.2784 32.1303 56.6356 31.699C56.9928 31.2678 57.3123 30.7457 57.5942 30.1328C57.8933 29.4951 58.1554 28.8315 58.3804 28.142C58.6055 27.4524 58.7854 26.8142 58.9201 26.2272C59.1722 26.1827 59.315 26.255 59.3483 26.4441C59.2172 27.0521 59.0342 27.7343 58.7993 28.4905C58.5817 29.2221 58.306 29.9314 57.9723 30.6185C57.6595 31.3019 57.2757 31.8894 56.8209 32.3812C56.366 32.873 55.834 33.1726 55.2247 33.28C54.8045 33.3541 54.3374 33.2849 53.8233 33.0722C53.3303 32.8559 53.0134 32.3485 52.8726 31.5502C52.8318 31.3191 52.8103 31.0738 52.8078 30.8143C52.8017 30.5337 52.8233 30.2266 52.8728 29.893C52.9668 29.4432 53.0867 28.9563 53.2326 28.4323C53.3785 27.9083 53.64 27.1799 54.0171 26.2469C54.1234 25.9899 54.1759 25.7965 54.1747 25.6667C54.1945 25.5332 54.197 25.4245 54.1822 25.3405C54.1377 25.0883 53.9999 24.9827 53.7688 25.0234C53.5798 25.0567 53.3147 25.2118 52.9735 25.4886C52.6534 25.7616 52.2666 26.209 51.8129 26.8305C51.3766 27.4273 50.8723 28.2528 50.3 29.3069C49.7486 30.3572 49.1596 31.8691 48.5327 33.8426C48.4338 34.1417 48.2917 34.3184 48.1063 34.3727C47.9419 34.4234 47.704 34.487 47.3926 34.5636C47.1862 34.6216 46.9885 34.6673 46.7994 34.7007C46.614 34.755 46.4676 34.8458 46.36 34.9731ZM63.5785 14.5204C63.3758 14.9677 63.1601 15.5257 62.9314 16.1942C62.7027 16.8628 62.4912 17.5066 62.2971 18.1257C62.124 18.7411 61.9899 19.2088 61.8947 19.5289L64.794 19.0177C64.8088 19.1017 64.7908 19.2457 64.7401 19.4496C64.7105 19.6498 64.598 19.8104 64.4027 19.9315L61.661 20.4149C61.5089 21.0266 61.3352 21.7613 61.1398 22.6189C60.9654 23.4728 60.7966 24.3583 60.6334 25.2752C60.4911 26.1885 60.3816 27.0418 60.3049 27.8352C60.2455 28.6038 60.2565 29.2192 60.338 29.6815C60.4491 30.3117 60.6165 30.7696 60.8402 31.0551C61.0601 31.3196 61.3907 31.413 61.8319 31.3352C62.3991 31.2351 62.8972 30.8657 63.3261 30.2269C63.7513 29.567 64.1209 28.7761 64.435 27.8543C64.77 26.9287 65.042 26.0142 65.251 25.1109C65.5031 25.0664 65.6458 25.1387 65.6791 25.3278C65.5481 25.9358 65.3737 26.6056 65.1561 27.3372C64.9385 28.0687 64.6647 28.7886 64.3346 29.4966C64.0219 30.18 63.6276 30.7694 63.1517 31.2649C62.6932 31.7357 62.1382 32.0285 61.487 32.1433C60.6046 32.2989 59.9632 32.1629 59.5629 31.7353C59.1588 31.2866 58.8883 30.6736 58.7512 29.8963C58.6512 29.329 58.6358 28.6277 58.7051 27.7923C58.7708 26.9359 58.8747 26.0511 59.0169 25.1378C59.1802 24.2209 59.3441 23.3688 59.5085 22.5816C59.6693 21.7734 59.7985 21.1549 59.8962 20.7261L57.8793 21.0817C57.8497 20.9137 57.8917 20.7221 58.0055 20.5071C58.1192 20.2921 58.2601 20.1698 58.4282 20.1401L60.0984 19.8456C60.2072 19.4798 60.3222 19.0263 60.4434 18.4851C60.5856 17.9401 60.792 17.3296 61.0628 16.6537C61.289 16.0939 61.6178 15.6243 62.0491 15.245C62.5015 14.862 63.0113 14.6204 63.5785 14.5204ZM67.8933 31.4036C67.5572 31.4629 67.2656 31.406 67.0184 31.233C66.7713 31.0599 66.6199 30.8158 66.5644 30.5007C66.4903 30.0805 66.5849 29.6956 66.8481 29.3459C67.1324 28.9925 67.4636 28.7824 67.8418 28.7158C68.178 28.6565 68.4696 28.7134 68.7167 28.8864C68.9602 29.0385 69.1097 29.272 69.1652 29.5872C69.2356 29.9864 69.141 30.3713 68.8815 30.742C68.6219 31.1127 68.2925 31.3333 67.8933 31.4036ZM74.8892 30.0726C74.1119 30.2097 73.4273 30.1354 72.8354 29.8499C72.2608 29.5396 71.7918 29.0916 71.4286 28.5057C71.0653 27.9199 70.8207 27.2698 70.6948 26.5555C70.554 25.7572 70.5504 24.8155 70.6841 23.7305C70.8177 22.6455 71.0613 21.5085 71.4149 20.3197C71.7895 19.1272 72.2537 17.9514 72.8075 16.7923C73.3613 15.6332 73.9862 14.5699 74.6821 13.6024C75.3953 12.6101 76.161 11.7927 76.9792 11.1502C77.7973 10.5077 78.6476 10.1087 79.53 9.95307C80.6435 9.75674 81.4715 9.96817 82.0139 10.5874C82.5736 11.1819 82.9406 11.9729 83.1147 12.9603C83.2629 13.8007 83.2949 14.7807 83.2107 15.9003C83.1228 16.9989 82.9286 18.1704 82.6281 19.4148C82.3449 20.6345 81.9617 21.8394 81.4783 23.0294C80.9949 24.2194 80.4195 25.3174 79.752 26.3232C79.1056 27.3254 78.3751 28.1582 77.5606 28.8217C76.7461 29.4852 75.8557 29.9022 74.8892 30.0726ZM75.1563 29.3756C75.8706 29.2497 76.5472 28.8488 77.1863 28.1729C77.8216 27.476 78.4044 26.6042 78.9347 25.5575C79.4613 24.4899 79.9205 23.3474 80.3125 22.1302C80.7217 20.8883 81.0574 19.6593 81.3195 18.4433C81.578 17.2063 81.7481 16.0824 81.8298 15.0715C81.9078 14.0396 81.8912 13.2085 81.7801 12.5782C81.6726 11.969 81.4626 11.4536 81.15 11.0322C80.8337 10.5897 80.3394 10.4277 79.6671 10.5463C78.9738 10.6685 78.3095 11.0781 77.6742 11.775C77.0389 12.4719 76.4475 13.3561 75.8998 14.4274C75.3695 15.4741 74.8893 16.6202 74.459 17.8659C74.0288 19.1115 73.6721 20.3442 73.3889 21.5639C73.1058 22.7836 72.9128 23.9007 72.8101 24.9153C72.7037 25.9089 72.7023 26.6998 72.8061 27.288C72.9209 27.9393 73.1575 28.4825 73.5158 28.9175C73.8741 29.3526 74.421 29.5053 75.1563 29.3756ZM85.6505 28.1751C85.1673 28.2603 84.6538 28.2967 84.11 28.2843C83.5663 28.2718 83.0689 28.1537 82.6178 27.93L82.5845 27.7409L82.7402 27.5185L82.9182 27.4221C83.2383 27.5173 83.6158 27.5699 84.0508 27.5798C84.4648 27.5935 84.8399 27.5707 85.176 27.5114C85.9954 27.3669 86.8074 26.9963 87.612 26.3995C88.4165 25.8027 89.134 25.0805 89.7644 24.2328C90.3911 23.3641 90.8596 22.4584 91.1699 21.5155C91.5012 20.5689 91.5928 19.6754 91.4446 18.8351C91.3261 18.1628 91.0184 17.7079 90.5217 17.4706C90.0459 17.2296 89.5139 17.1609 88.9257 17.2646C88.5685 17.3276 88.1996 17.4468 87.8189 17.6222C87.4556 17.7729 87.1046 17.9323 86.766 18.1003L86.5287 18.0447L86.4472 17.7666L86.5399 17.5553C87.0664 17.2242 87.7041 16.7868 88.4531 16.2432C89.2021 15.6995 89.9276 15.0842 90.6296 14.3972C91.3316 13.7102 91.886 12.9842 92.2927 12.2193C92.6994 11.4544 92.8342 10.6833 92.6971 9.90591C92.5638 9.14958 92.0979 8.8418 91.2996 8.98257C90.7533 9.07889 90.2244 9.33463 89.7127 9.74979C89.222 10.1612 88.774 10.6302 88.3685 11.1566C87.9804 11.6583 87.6535 12.1383 87.3877 12.5968L87.2302 12.6245L86.9707 12.4428L86.9429 12.2853C87.3224 11.6118 87.7599 10.9606 88.2556 10.3317C88.7512 9.70269 89.3161 9.15902 89.9501 8.70062C90.6051 8.23852 91.3318 7.93708 92.1302 7.79631C92.7605 7.68518 93.3431 7.73407 93.8782 7.943C94.4133 8.15193 94.7419 8.60304 94.8642 9.29635C95.005 10.0947 94.8807 10.864 94.4913 11.6042C94.1192 12.3196 93.5995 12.9962 92.932 13.6338C92.2819 14.2466 91.5892 14.802 90.8538 15.3C90.1184 15.7979 89.456 16.218 88.8664 16.5602C89.4967 16.4491 90.1628 16.4183 90.8647 16.4678C91.5667 16.5173 92.1858 16.7114 92.7221 17.0501C93.2584 17.3888 93.5932 17.9363 93.7266 18.6926C93.897 19.6591 93.759 20.6582 93.3128 21.69C92.8875 22.7182 92.2583 23.6956 91.4253 24.6223C90.5922 25.5491 89.6683 26.3294 88.6537 26.9632C87.639 27.597 86.6379 28.001 85.6505 28.1751Z" fill="#FB8B18"/>
</svg>
