<svg width="83" height="36" viewBox="0 0 83 36" fill="none" xmlns="http://www.w3.org/2000/svg">
<path d="M48.9346 24.5L48.416 25.2773L42 34.9014L35.584 25.2773L35.0654 24.5H48.9346Z" fill="white" stroke="#FB8B18"/>
<rect x="0.5" y="0.5" width="82" height="27" rx="4.5" fill="white"/>
<rect x="0.5" y="0.5" width="82" height="27" rx="4.5" stroke="#FB8B18"/>
<path d="M20.375 18.5H10.625C10.4188 18.5 10.25 18.6687 10.25 18.875V19.625C10.25 19.8313 10.4188 20 10.625 20H20.375C20.5813 20 20.75 19.8313 20.75 19.625V18.875C20.75 18.6687 20.5813 18.5 20.375 18.5ZM21.875 11C21.2539 11 20.75 11.5039 20.75 12.125C20.75 12.2914 20.7875 12.4461 20.8531 12.5891L19.1562 13.6062C18.7953 13.8219 18.3289 13.7 18.1203 13.3344L16.2102 9.99219C16.4609 9.78594 16.625 9.47656 16.625 9.125C16.625 8.50391 16.1211 8 15.5 8C14.8789 8 14.375 8.50391 14.375 9.125C14.375 9.47656 14.5391 9.78594 14.7898 9.99219L12.8797 13.3344C12.6711 13.7 12.2023 13.8219 11.8438 13.6062L10.1492 12.5891C10.2125 12.4484 10.2523 12.2914 10.2523 12.125C10.2523 11.5039 9.74844 11 9.12734 11C8.50625 11 8 11.5039 8 12.125C8 12.7461 8.50391 13.25 9.125 13.25C9.18594 13.25 9.24688 13.2406 9.30547 13.2312L11 17.75H20L21.6945 13.2312C21.7531 13.2406 21.8141 13.25 21.875 13.25C22.4961 13.25 23 12.7461 23 12.125C23 11.5039 22.4961 11 21.875 11Z" fill="#FB8B18"/>
<path d="M32.232 9.256C32.224 9.32 32.212 9.42 32.196 9.556C32.18 9.684 32.164 9.816 32.148 9.952C32.14 10.08 32.132 10.196 32.124 10.3C32.108 10.532 32.092 10.788 32.076 11.068C32.068 11.34 32.06 11.624 32.052 11.92C32.044 12.208 32.036 12.5 32.028 12.796C32.028 13.092 32.028 13.38 32.028 13.66C32.028 13.988 32.032 14.352 32.04 14.752C32.048 15.144 32.056 15.536 32.064 15.928C32.08 16.312 32.088 16.664 32.088 16.984C32.096 17.304 32.1 17.552 32.1 17.728C32.1 18.224 32.044 18.608 31.932 18.88C31.828 19.152 31.676 19.34 31.476 19.444C31.276 19.556 31.044 19.612 30.78 19.612C30.492 19.612 30.184 19.552 29.856 19.432C29.528 19.32 29.22 19.16 28.932 18.952C28.652 18.744 28.42 18.504 28.236 18.232C28.06 17.952 27.972 17.652 27.972 17.332C27.972 16.948 28.116 16.568 28.404 16.192C28.7 15.808 29.088 15.456 29.568 15.136C30.056 14.816 30.58 14.56 31.14 14.368C31.676 14.168 32.228 14.024 32.796 13.936C33.364 13.84 33.876 13.792 34.332 13.792C34.948 13.792 35.504 13.896 36 14.104C36.496 14.304 36.892 14.6 37.188 14.992C37.484 15.384 37.632 15.856 37.632 16.408C37.632 16.872 37.544 17.3 37.368 17.692C37.192 18.084 36.908 18.424 36.516 18.712C36.132 18.992 35.62 19.212 34.98 19.372C34.708 19.428 34.436 19.468 34.164 19.492C33.9 19.524 33.648 19.548 33.408 19.564L32.856 18.016C33.128 18.016 33.388 18.012 33.636 18.004C33.892 17.988 34.124 17.964 34.332 17.932C34.66 17.868 34.956 17.772 35.22 17.644C35.484 17.516 35.692 17.348 35.844 17.14C35.996 16.932 36.072 16.684 36.072 16.396C36.072 16.124 35.996 15.892 35.844 15.7C35.7 15.508 35.496 15.36 35.232 15.256C34.968 15.152 34.66 15.1 34.308 15.1C33.804 15.1 33.292 15.152 32.772 15.256C32.26 15.36 31.768 15.504 31.296 15.688C30.944 15.824 30.628 15.984 30.348 16.168C30.068 16.344 29.848 16.528 29.688 16.72C29.528 16.912 29.448 17.096 29.448 17.272C29.448 17.368 29.476 17.46 29.532 17.548C29.596 17.628 29.676 17.7 29.772 17.764C29.868 17.828 29.964 17.88 30.06 17.92C30.164 17.952 30.252 17.968 30.324 17.968C30.436 17.968 30.528 17.936 30.6 17.872C30.672 17.8 30.708 17.664 30.708 17.464C30.708 17.248 30.7 16.94 30.684 16.54C30.676 16.132 30.664 15.68 30.648 15.184C30.64 14.688 30.636 14.196 30.636 13.708C30.636 13.372 30.636 13.032 30.636 12.688C30.644 12.344 30.648 12.016 30.648 11.704C30.648 11.392 30.648 11.116 30.648 10.876C30.656 10.636 30.66 10.448 30.66 10.312C30.66 10.224 30.656 10.112 30.648 9.976C30.64 9.84 30.628 9.704 30.612 9.568C30.604 9.424 30.592 9.32 30.576 9.256H32.232ZM35.652 10.552C35.956 10.696 36.296 10.872 36.672 11.08C37.056 11.288 37.42 11.496 37.764 11.704C38.116 11.904 38.396 12.084 38.604 12.244L37.884 13.468C37.732 13.34 37.532 13.196 37.284 13.036C37.044 12.876 36.78 12.712 36.492 12.544C36.212 12.376 35.94 12.22 35.676 12.076C35.412 11.924 35.184 11.804 34.992 11.716L35.652 10.552ZM28.296 11.212C28.648 11.252 28.956 11.28 29.22 11.296C29.492 11.304 29.736 11.308 29.952 11.308C30.264 11.308 30.608 11.296 30.984 11.272C31.36 11.24 31.744 11.2 32.136 11.152C32.528 11.096 32.908 11.032 33.276 10.96C33.652 10.888 33.992 10.808 34.296 10.72L34.332 12.208C33.996 12.288 33.632 12.36 33.24 12.424C32.848 12.48 32.452 12.532 32.052 12.58C31.66 12.628 31.284 12.664 30.924 12.688C30.572 12.712 30.264 12.724 30 12.724C29.6 12.724 29.272 12.72 29.016 12.712C28.76 12.704 28.528 12.688 28.32 12.664L28.296 11.212ZM46.836 9.328C46.828 9.392 46.816 9.496 46.8 9.64C46.792 9.776 46.784 9.916 46.776 10.06C46.768 10.196 46.76 10.296 46.752 10.36C46.744 10.52 46.74 10.736 46.74 11.008C46.74 11.272 46.74 11.568 46.74 11.896C46.74 12.224 46.74 12.556 46.74 12.892C46.748 13.22 46.752 13.532 46.752 13.828C46.76 14.116 46.764 14.356 46.764 14.548L45.264 14.044C45.264 13.892 45.264 13.692 45.264 13.444C45.264 13.188 45.264 12.912 45.264 12.616C45.264 12.312 45.26 12.012 45.252 11.716C45.252 11.42 45.248 11.152 45.24 10.912C45.232 10.672 45.224 10.492 45.216 10.372C45.2 10.124 45.18 9.908 45.156 9.724C45.132 9.532 45.112 9.4 45.096 9.328H46.836ZM40.056 10.816C40.408 10.816 40.808 10.812 41.256 10.804C41.704 10.796 42.172 10.788 42.66 10.78C43.148 10.772 43.628 10.764 44.1 10.756C44.572 10.748 45.016 10.744 45.432 10.744C45.848 10.736 46.208 10.732 46.512 10.732C46.816 10.732 47.148 10.732 47.508 10.732C47.868 10.724 48.224 10.72 48.576 10.72C48.928 10.72 49.248 10.72 49.536 10.72C49.832 10.72 50.06 10.72 50.22 10.72L50.208 12.136C49.832 12.12 49.336 12.108 48.72 12.1C48.104 12.084 47.352 12.076 46.464 12.076C45.92 12.076 45.368 12.084 44.808 12.1C44.248 12.108 43.692 12.12 43.14 12.136C42.588 12.152 42.056 12.172 41.544 12.196C41.032 12.212 40.548 12.236 40.092 12.268L40.056 10.816ZM46.548 14.368C46.548 15.024 46.468 15.568 46.308 16C46.156 16.432 45.924 16.76 45.612 16.984C45.3 17.2 44.912 17.308 44.448 17.308C44.224 17.308 43.988 17.26 43.74 17.164C43.5 17.068 43.276 16.928 43.068 16.744C42.86 16.56 42.692 16.332 42.564 16.06C42.444 15.788 42.384 15.468 42.384 15.1C42.384 14.644 42.492 14.252 42.708 13.924C42.924 13.588 43.212 13.328 43.572 13.144C43.94 12.952 44.344 12.856 44.784 12.856C45.312 12.856 45.752 12.976 46.104 13.216C46.464 13.448 46.732 13.764 46.908 14.164C47.092 14.564 47.184 15.016 47.184 15.52C47.184 15.912 47.12 16.32 46.992 16.744C46.864 17.168 46.652 17.584 46.356 17.992C46.068 18.392 45.676 18.756 45.18 19.084C44.692 19.412 44.08 19.68 43.344 19.888L42.06 18.616C42.572 18.512 43.048 18.376 43.488 18.208C43.928 18.04 44.312 17.828 44.64 17.572C44.976 17.316 45.236 17 45.42 16.624C45.612 16.248 45.708 15.796 45.708 15.268C45.708 14.884 45.612 14.596 45.42 14.404C45.236 14.212 45.012 14.116 44.748 14.116C44.596 14.116 44.448 14.152 44.304 14.224C44.16 14.296 44.044 14.404 43.956 14.548C43.868 14.692 43.824 14.868 43.824 15.076C43.824 15.348 43.916 15.568 44.1 15.736C44.292 15.896 44.508 15.976 44.748 15.976C44.94 15.976 45.108 15.916 45.252 15.796C45.404 15.676 45.504 15.476 45.552 15.196C45.6 14.916 45.56 14.54 45.432 14.068L46.548 14.368ZM58.836 9.328C58.828 9.392 58.816 9.496 58.8 9.64C58.792 9.776 58.784 9.916 58.776 10.06C58.768 10.196 58.76 10.296 58.752 10.36C58.744 10.52 58.74 10.736 58.74 11.008C58.74 11.272 58.74 11.568 58.74 11.896C58.74 12.224 58.74 12.556 58.74 12.892C58.748 13.22 58.752 13.532 58.752 13.828C58.76 14.116 58.764 14.356 58.764 14.548L57.264 14.044C57.264 13.892 57.264 13.692 57.264 13.444C57.264 13.188 57.264 12.912 57.264 12.616C57.264 12.312 57.26 12.012 57.252 11.716C57.252 11.42 57.248 11.152 57.24 10.912C57.232 10.672 57.224 10.492 57.216 10.372C57.2 10.124 57.18 9.908 57.156 9.724C57.132 9.532 57.112 9.4 57.096 9.328H58.836ZM52.056 10.816C52.408 10.816 52.808 10.812 53.256 10.804C53.704 10.796 54.172 10.788 54.66 10.78C55.148 10.772 55.628 10.764 56.1 10.756C56.572 10.748 57.016 10.744 57.432 10.744C57.848 10.736 58.208 10.732 58.512 10.732C58.816 10.732 59.148 10.732 59.508 10.732C59.868 10.724 60.224 10.72 60.576 10.72C60.928 10.72 61.248 10.72 61.536 10.72C61.832 10.72 62.06 10.72 62.22 10.72L62.208 12.136C61.832 12.12 61.336 12.108 60.72 12.1C60.104 12.084 59.352 12.076 58.464 12.076C57.92 12.076 57.368 12.084 56.808 12.1C56.248 12.108 55.692 12.12 55.14 12.136C54.588 12.152 54.056 12.172 53.544 12.196C53.032 12.212 52.548 12.236 52.092 12.268L52.056 10.816ZM58.548 14.368C58.548 15.024 58.468 15.568 58.308 16C58.156 16.432 57.924 16.76 57.612 16.984C57.3 17.2 56.912 17.308 56.448 17.308C56.224 17.308 55.988 17.26 55.74 17.164C55.5 17.068 55.276 16.928 55.068 16.744C54.86 16.56 54.692 16.332 54.564 16.06C54.444 15.788 54.384 15.468 54.384 15.1C54.384 14.644 54.492 14.252 54.708 13.924C54.924 13.588 55.212 13.328 55.572 13.144C55.94 12.952 56.344 12.856 56.784 12.856C57.312 12.856 57.752 12.976 58.104 13.216C58.464 13.448 58.732 13.764 58.908 14.164C59.092 14.564 59.184 15.016 59.184 15.52C59.184 15.912 59.12 16.32 58.992 16.744C58.864 17.168 58.652 17.584 58.356 17.992C58.068 18.392 57.676 18.756 57.18 19.084C56.692 19.412 56.08 19.68 55.344 19.888L54.06 18.616C54.572 18.512 55.048 18.376 55.488 18.208C55.928 18.04 56.312 17.828 56.64 17.572C56.976 17.316 57.236 17 57.42 16.624C57.612 16.248 57.708 15.796 57.708 15.268C57.708 14.884 57.612 14.596 57.42 14.404C57.236 14.212 57.012 14.116 56.748 14.116C56.596 14.116 56.448 14.152 56.304 14.224C56.16 14.296 56.044 14.404 55.956 14.548C55.868 14.692 55.824 14.868 55.824 15.076C55.824 15.348 55.916 15.568 56.1 15.736C56.292 15.896 56.508 15.976 56.748 15.976C56.94 15.976 57.108 15.916 57.252 15.796C57.404 15.676 57.504 15.476 57.552 15.196C57.6 14.916 57.56 14.54 57.432 14.068L58.548 14.368ZM71.388 9.592C71.364 9.696 71.332 9.824 71.292 9.976C71.26 10.128 71.228 10.28 71.196 10.432C71.164 10.584 71.136 10.708 71.112 10.804C70.984 11.34 70.84 11.888 70.68 12.448C70.52 13 70.34 13.548 70.14 14.092C69.94 14.636 69.716 15.144 69.468 15.616C69.228 16.088 68.96 16.508 68.664 16.876C68.304 17.34 67.964 17.72 67.644 18.016C67.332 18.312 67.02 18.532 66.708 18.676C66.396 18.812 66.056 18.88 65.688 18.88C65.36 18.88 65.048 18.792 64.752 18.616C64.464 18.432 64.228 18.164 64.044 17.812C63.868 17.452 63.78 17.012 63.78 16.492C63.78 15.956 63.876 15.424 64.068 14.896C64.268 14.36 64.54 13.864 64.884 13.408C65.236 12.952 65.648 12.572 66.12 12.268C66.76 11.852 67.388 11.56 68.004 11.392C68.62 11.224 69.248 11.14 69.888 11.14C70.72 11.14 71.456 11.316 72.096 11.668C72.736 12.012 73.236 12.496 73.596 13.12C73.956 13.744 74.136 14.476 74.136 15.316C74.136 16.156 73.948 16.884 73.572 17.5C73.204 18.108 72.696 18.596 72.048 18.964C71.4 19.324 70.66 19.568 69.828 19.696L68.904 18.304C69.568 18.248 70.132 18.128 70.596 17.944C71.068 17.76 71.448 17.528 71.736 17.248C72.032 16.968 72.248 16.656 72.384 16.312C72.52 15.968 72.588 15.608 72.588 15.232C72.588 14.688 72.468 14.212 72.228 13.804C71.996 13.388 71.668 13.064 71.244 12.832C70.82 12.592 70.32 12.472 69.744 12.472C69.112 12.472 68.548 12.576 68.052 12.784C67.556 12.984 67.1 13.236 66.684 13.54C66.372 13.764 66.104 14.036 65.88 14.356C65.656 14.668 65.484 15 65.364 15.352C65.244 15.704 65.184 16.044 65.184 16.372C65.184 16.66 65.244 16.892 65.364 17.068C65.492 17.244 65.66 17.332 65.868 17.332C66.02 17.332 66.176 17.288 66.336 17.2C66.496 17.104 66.656 16.98 66.816 16.828C66.976 16.668 67.136 16.484 67.296 16.276C67.456 16.068 67.616 15.848 67.776 15.616C68 15.272 68.212 14.888 68.412 14.464C68.612 14.04 68.792 13.596 68.952 13.132C69.12 12.668 69.26 12.22 69.372 11.788C69.484 11.348 69.572 10.944 69.636 10.576C69.676 10.4 69.7 10.2 69.708 9.976C69.724 9.752 69.732 9.572 69.732 9.436L71.388 9.592ZM66.324 9.988C66.364 10.188 66.404 10.384 66.444 10.576C66.492 10.768 66.54 10.956 66.588 11.14C66.676 11.468 66.78 11.824 66.9 12.208C67.02 12.584 67.148 12.96 67.284 13.336C67.428 13.712 67.572 14.06 67.716 14.38C67.86 14.692 68.004 14.96 68.148 15.184C68.356 15.504 68.592 15.84 68.856 16.192C69.12 16.536 69.392 16.844 69.672 17.116L68.46 18.076C68.22 17.812 68.004 17.56 67.812 17.32C67.628 17.072 67.436 16.796 67.236 16.492C67.06 16.22 66.88 15.904 66.696 15.544C66.52 15.184 66.344 14.792 66.168 14.368C66 13.944 65.836 13.508 65.676 13.06C65.524 12.612 65.376 12.168 65.232 11.728C65.168 11.512 65.096 11.304 65.016 11.104C64.944 10.904 64.856 10.696 64.752 10.48L66.324 9.988Z" fill="#FB8B18"/>
<path d="M36 25H48L42 34L36 25Z" fill="white"/>
</svg>
