<svg width="189" height="46" viewBox="0 0 189 46" fill="none" xmlns="http://www.w3.org/2000/svg">
<rect x="1" y="1" width="187" height="38" rx="19" fill="white"/>
<rect x="1" y="1" width="187" height="38" rx="19" stroke="#379FAA" stroke-width="2"/>
<path d="M49.852 15.056C49.8307 15.216 49.8093 15.3973 49.788 15.6C49.7773 15.792 49.7667 15.9893 49.756 16.192C49.7453 16.4053 49.7347 16.6933 49.724 17.056C49.7133 17.408 49.708 17.7973 49.708 18.224C49.708 18.6507 49.708 19.072 49.708 19.488C49.708 19.904 49.708 20.2827 49.708 20.624C49.708 21.072 49.7187 21.5733 49.74 22.128C49.7613 22.672 49.788 23.2267 49.82 23.792C49.8627 24.3467 49.8947 24.8693 49.916 25.36C49.948 25.84 49.964 26.24 49.964 26.56C49.964 27.008 49.8467 27.4187 49.612 27.792C49.3773 28.1547 49.0253 28.4427 48.556 28.656C48.0973 28.8693 47.516 28.976 46.812 28.976C45.532 28.976 44.5613 28.7413 43.9 28.272C43.2387 27.8027 42.908 27.1467 42.908 26.304C42.908 25.76 43.0627 25.2853 43.372 24.88C43.692 24.464 44.1453 24.1387 44.732 23.904C45.3293 23.6693 46.0387 23.552 46.86 23.552C47.7347 23.552 48.5507 23.648 49.308 23.84C50.076 24.0213 50.7747 24.2613 51.404 24.56C52.0333 24.8587 52.5933 25.1733 53.084 25.504C53.5747 25.8347 53.9907 26.1333 54.332 26.4L53.18 28.192C52.796 27.8293 52.364 27.472 51.884 27.12C51.4147 26.768 50.8973 26.448 50.332 26.16C49.7773 25.872 49.1853 25.6427 48.556 25.472C47.9373 25.2907 47.2813 25.2 46.588 25.2C46.0333 25.2 45.6013 25.296 45.292 25.488C44.9933 25.68 44.844 25.9147 44.844 26.192C44.844 26.3947 44.908 26.5707 45.036 26.72C45.164 26.8693 45.3507 26.9813 45.596 27.056C45.8413 27.1307 46.1507 27.168 46.524 27.168C46.812 27.168 47.0573 27.136 47.26 27.072C47.4733 27.008 47.6387 26.8907 47.756 26.72C47.8733 26.5493 47.932 26.3093 47.932 26C47.932 25.7653 47.9213 25.4293 47.9 24.992C47.8893 24.5547 47.8733 24.0747 47.852 23.552C47.8307 23.0187 47.8093 22.496 47.788 21.984C47.7667 21.472 47.756 21.0187 47.756 20.624C47.756 20.24 47.756 19.84 47.756 19.424C47.7667 18.9973 47.772 18.576 47.772 18.16C47.772 17.744 47.772 17.3653 47.772 17.024C47.7827 16.672 47.788 16.384 47.788 16.16C47.788 16.0107 47.7773 15.8293 47.756 15.616C47.7453 15.392 47.724 15.2053 47.692 15.056H49.852ZM43.212 16.56C43.5 16.6027 43.82 16.6453 44.172 16.688C44.524 16.7307 44.8813 16.7733 45.244 16.816C45.6173 16.848 45.9693 16.8747 46.3 16.896C46.6307 16.9067 46.9187 16.912 47.164 16.912C48.252 16.912 49.3347 16.88 50.412 16.816C51.5 16.7413 52.6253 16.608 53.788 16.416L53.772 18.256C53.228 18.3307 52.5987 18.4 51.884 18.464C51.1693 18.528 50.4067 18.5813 49.596 18.624C48.796 18.656 47.9907 18.672 47.18 18.672C46.8493 18.672 46.4387 18.6613 45.948 18.64C45.468 18.608 44.988 18.5707 44.508 18.528C44.028 18.4747 43.612 18.4267 43.26 18.384L43.212 16.56ZM43.132 20.016C43.388 20.0587 43.692 20.1013 44.044 20.144C44.396 20.1867 44.7533 20.2187 45.116 20.24C45.4893 20.2613 45.8413 20.2827 46.172 20.304C46.5027 20.3147 46.7747 20.32 46.988 20.32C47.98 20.32 48.876 20.2987 49.676 20.256C50.4867 20.2133 51.244 20.16 51.948 20.096C52.652 20.032 53.3293 19.9573 53.98 19.872L53.964 21.76C53.4093 21.824 52.8707 21.8773 52.348 21.92C51.836 21.9627 51.308 22 50.764 22.032C50.2307 22.064 49.6547 22.0853 49.036 22.096C48.4173 22.1067 47.724 22.112 46.956 22.112C46.6467 22.112 46.2627 22.1067 45.804 22.096C45.3453 22.0747 44.876 22.048 44.396 22.016C43.9267 21.984 43.5107 21.9467 43.148 21.904L43.132 20.016ZM67.084 15.328C67.0733 15.4133 67.0573 15.552 67.036 15.744C67.0147 15.9253 66.9987 16.112 66.988 16.304C66.988 16.4853 66.9827 16.6187 66.972 16.704C66.9613 16.9173 66.9507 17.2053 66.94 17.568C66.94 17.9307 66.94 18.3307 66.94 18.768C66.94 19.2053 66.94 19.648 66.94 20.096C66.9507 20.5333 66.956 20.9493 66.956 21.344C66.9667 21.728 66.972 22.048 66.972 22.304L64.988 21.616C64.988 21.4133 64.988 21.1467 64.988 20.816C64.988 20.4853 64.988 20.1227 64.988 19.728C64.988 19.3227 64.9827 18.9227 64.972 18.528C64.972 18.1333 64.9667 17.776 64.956 17.456C64.9453 17.136 64.9347 16.8907 64.924 16.72C64.9027 16.4 64.876 16.112 64.844 15.856C64.812 15.6 64.7907 15.424 64.78 15.328H67.084ZM58.044 17.328C58.524 17.3173 59.0573 17.312 59.644 17.312C60.2413 17.3013 60.8653 17.2907 61.516 17.28C62.1667 17.2587 62.8067 17.2427 63.436 17.232C64.076 17.2213 64.668 17.216 65.212 17.216C65.7667 17.2053 66.2467 17.2 66.652 17.2C67.0573 17.2 67.5 17.2 67.98 17.2C68.46 17.1893 68.9347 17.184 69.404 17.184C69.8733 17.184 70.3 17.184 70.684 17.184C71.068 17.184 71.372 17.184 71.596 17.184L71.58 19.088C71.0787 19.0667 70.412 19.0453 69.58 19.024C68.7587 19.0027 67.7613 18.992 66.588 18.992C65.8627 18.992 65.1267 19.0027 64.38 19.024C63.6333 19.0347 62.892 19.056 62.156 19.088C61.42 19.1093 60.7107 19.136 60.028 19.168C59.3453 19.1893 58.7 19.2213 58.092 19.264L58.044 17.328ZM66.7 22.048C66.7 22.9227 66.5933 23.648 66.38 24.224C66.1773 24.8 65.868 25.2373 65.452 25.536C65.036 25.824 64.5187 25.968 63.9 25.968C63.5907 25.968 63.2707 25.9093 62.94 25.792C62.62 25.664 62.3213 25.4773 62.044 25.232C61.7773 24.976 61.5587 24.6667 61.388 24.304C61.2173 23.9413 61.132 23.52 61.132 23.04C61.132 22.432 61.276 21.904 61.564 21.456C61.8627 21.008 62.2573 20.6613 62.748 20.416C63.2387 20.16 63.772 20.032 64.348 20.032C65.052 20.032 65.6387 20.192 66.108 20.512C66.588 20.832 66.9507 21.2587 67.196 21.792C67.4413 22.3253 67.564 22.9227 67.564 23.584C67.564 24.1067 67.4787 24.6507 67.308 25.216C67.1373 25.7813 66.8493 26.336 66.444 26.88C66.0493 27.424 65.5213 27.9147 64.86 28.352C64.2093 28.7893 63.3933 29.1467 62.412 29.424L60.716 27.712C61.3987 27.5733 62.0333 27.392 62.62 27.168C63.2067 26.944 63.7187 26.6613 64.156 26.32C64.604 25.9787 64.9507 25.5573 65.196 25.056C65.452 24.5547 65.58 23.9573 65.58 23.264C65.58 22.7413 65.4573 22.3573 65.212 22.112C64.9667 21.856 64.6573 21.728 64.284 21.728C64.0813 21.728 63.884 21.776 63.692 21.872C63.5107 21.9573 63.3613 22.096 63.244 22.288C63.1267 22.48 63.068 22.7147 63.068 22.992C63.068 23.3653 63.1907 23.664 63.436 23.888C63.692 24.1013 63.98 24.208 64.3 24.208C64.556 24.208 64.7853 24.128 64.988 23.968C65.1907 23.7973 65.3187 23.5253 65.372 23.152C65.436 22.7787 65.3827 22.2773 65.212 21.648L66.7 22.048ZM69.148 14.848C69.3507 15.136 69.5533 15.456 69.756 15.808C69.9587 16.1493 70.1293 16.4587 70.268 16.736L68.924 17.296C68.764 16.976 68.5933 16.656 68.412 16.336C68.2307 16.0053 68.0387 15.6907 67.836 15.392L69.148 14.848ZM71.292 14.4C71.4947 14.688 71.6973 15.0027 71.9 15.344C72.1027 15.6747 72.2787 15.984 72.428 16.272L71.084 16.832C70.924 16.512 70.748 16.192 70.556 15.872C70.3747 15.5413 70.1773 15.232 69.964 14.944L71.292 14.4ZM80.156 18.176C80.6147 18.2187 81.0733 18.256 81.532 18.288C82.0013 18.3093 82.476 18.32 82.956 18.32C83.9373 18.32 84.9133 18.2773 85.884 18.192C86.8547 18.1067 87.7507 17.9733 88.572 17.792V19.792C87.74 19.9093 86.8387 20.0053 85.868 20.08C84.8973 20.144 83.9267 20.176 82.956 20.176C82.4867 20.176 82.0173 20.1707 81.548 20.16C81.0893 20.1387 80.6253 20.112 80.156 20.08V18.176ZM86.236 15.472C86.2147 15.6213 86.1933 15.7867 86.172 15.968C86.1613 16.1493 86.1507 16.3307 86.14 16.512C86.1293 16.6827 86.1187 16.912 86.108 17.2C86.0973 17.488 86.092 17.8133 86.092 18.176C86.092 18.528 86.092 18.9013 86.092 19.296C86.092 20.0213 86.1027 20.704 86.124 21.344C86.1453 21.9733 86.172 22.56 86.204 23.104C86.236 23.6373 86.2627 24.128 86.284 24.576C86.316 25.024 86.332 25.44 86.332 25.824C86.332 26.24 86.2733 26.624 86.156 26.976C86.0493 27.328 85.8733 27.6373 85.628 27.904C85.3827 28.1707 85.0573 28.3733 84.652 28.512C84.2573 28.6613 83.772 28.736 83.196 28.736C82.0867 28.736 81.212 28.512 80.572 28.064C79.932 27.616 79.612 26.9707 79.612 26.128C79.612 25.584 79.756 25.1093 80.044 24.704C80.332 24.288 80.7427 23.968 81.276 23.744C81.8093 23.5093 82.4387 23.392 83.164 23.392C83.9213 23.392 84.6093 23.472 85.228 23.632C85.8467 23.792 86.412 24.0053 86.924 24.272C87.436 24.5387 87.8893 24.832 88.284 25.152C88.6893 25.4613 89.052 25.76 89.372 26.048L88.268 27.728C87.66 27.152 87.068 26.656 86.492 26.24C85.916 25.824 85.34 25.504 84.764 25.28C84.1987 25.056 83.612 24.944 83.004 24.944C82.556 24.944 82.188 25.0293 81.9 25.2C81.6227 25.3707 81.484 25.6107 81.484 25.92C81.484 26.24 81.628 26.4747 81.916 26.624C82.204 26.7733 82.556 26.848 82.972 26.848C83.3027 26.848 83.564 26.7947 83.756 26.688C83.948 26.5707 84.0813 26.4053 84.156 26.192C84.2413 25.968 84.284 25.7013 84.284 25.392C84.284 25.1147 84.2733 24.752 84.252 24.304C84.2307 23.856 84.204 23.3547 84.172 22.8C84.1507 22.2453 84.1293 21.6693 84.108 21.072C84.0867 20.464 84.076 19.872 84.076 19.296C84.076 18.688 84.0707 18.1387 84.06 17.648C84.06 17.1467 84.06 16.7733 84.06 16.528C84.06 16.4107 84.0493 16.2453 84.028 16.032C84.0067 15.8187 83.98 15.632 83.948 15.472H86.236ZM78.428 15.648C78.396 15.7547 78.348 15.904 78.284 16.096C78.2307 16.288 78.1827 16.4747 78.14 16.656C78.108 16.8373 78.0813 16.976 78.06 17.072C78.0067 17.296 77.948 17.6 77.884 17.984C77.82 18.3573 77.7507 18.784 77.676 19.264C77.612 19.7333 77.548 20.2187 77.484 20.72C77.42 21.2107 77.372 21.68 77.34 22.128C77.308 22.5653 77.292 22.944 77.292 23.264C77.292 23.424 77.292 23.6 77.292 23.792C77.3027 23.9733 77.324 24.144 77.356 24.304C77.4307 24.112 77.5053 23.9253 77.58 23.744C77.6653 23.5627 77.7507 23.3813 77.836 23.2C77.9213 23.0187 78.0013 22.8373 78.076 22.656L79.052 23.456C78.9027 23.8933 78.748 24.352 78.588 24.832C78.4387 25.312 78.3 25.7653 78.172 26.192C78.0547 26.6187 77.964 26.976 77.9 27.264C77.8787 27.3707 77.8573 27.4987 77.836 27.648C77.8253 27.7973 77.82 27.92 77.82 28.016C77.82 28.1013 77.82 28.2027 77.82 28.32C77.8307 28.448 77.8413 28.5653 77.852 28.672L76.044 28.816C75.8733 28.2507 75.724 27.5307 75.596 26.656C75.468 25.7707 75.404 24.784 75.404 23.696C75.404 23.0987 75.4307 22.4747 75.484 21.824C75.5373 21.1627 75.596 20.528 75.66 19.92C75.7347 19.312 75.8093 18.7573 75.884 18.256C75.9587 17.744 76.0173 17.3333 76.06 17.024C76.092 16.8 76.124 16.5493 76.156 16.272C76.188 15.984 76.2093 15.712 76.22 15.456L78.428 15.648ZM95.4 11L97.76 11.7C97.4 12.4333 96.9733 13.1533 96.48 13.86C95.9867 14.5667 95.4533 15.22 94.88 15.82C94.32 16.42 93.76 16.9467 93.2 17.4C93.0667 17.24 92.88 17.06 92.64 16.86C92.4 16.66 92.1533 16.4667 91.9 16.28C91.6467 16.0933 91.4267 15.94 91.24 15.82C92.0933 15.26 92.8933 14.5533 93.64 13.7C94.3867 12.8467 94.9733 11.9467 95.4 11ZM95.24 13.12H109.02V15.22H94.66L95.24 13.12ZM91.68 17.78H109.76V19.92H91.68V17.78ZM92 22.46H109.46V24.6H92V22.46ZM97.94 13.86H99.94V23.58H97.94V13.86ZM94.38 13.86H96.52V23.6H94.38V13.86ZM101.42 13.86H103.42V23.6H101.42V13.86ZM104.94 13.86H107.14V23.6H104.94V13.86ZM97.34 25.72L99.56 25.48C99.6933 26.08 99.8067 26.7333 99.9 27.44C100.007 28.1467 100.067 28.7467 100.08 29.24L97.72 29.58C97.72 29.26 97.7 28.88 97.66 28.44C97.6333 28 97.5933 27.54 97.54 27.06C97.4867 26.58 97.42 26.1333 97.34 25.72ZM101.32 25.78L103.56 25.4C103.733 25.7867 103.9 26.2067 104.06 26.66C104.22 27.1133 104.36 27.5533 104.48 27.98C104.6 28.4067 104.687 28.7933 104.74 29.14L102.34 29.6C102.273 29.1067 102.14 28.5 101.94 27.78C101.753 27.06 101.547 26.3933 101.32 25.78ZM105.28 25.66L107.58 24.94C107.9 25.3533 108.22 25.8 108.54 26.28C108.86 26.76 109.167 27.24 109.46 27.72C109.753 28.1867 109.98 28.6067 110.14 28.98L107.68 29.8C107.533 29.44 107.327 29.02 107.06 28.54C106.807 28.06 106.52 27.5733 106.2 27.08C105.893 26.5733 105.587 26.1 105.28 25.66ZM93.74 25.02L96.06 25.6C95.8333 26.36 95.52 27.12 95.12 27.88C94.72 28.64 94.2733 29.2867 93.78 29.82L91.48 28.88C91.9333 28.4533 92.3667 27.8867 92.78 27.18C93.1933 26.4733 93.5133 25.7533 93.74 25.02ZM115.5 11.1H117.7V29.74H115.5V11.1ZM112.46 17.68H120.66V19.92H112.46V17.68ZM115.06 18.86L116.4 19.52C116.227 20.1867 116.027 20.8933 115.8 21.64C115.573 22.3733 115.32 23.1067 115.04 23.84C114.76 24.5733 114.467 25.2667 114.16 25.92C113.853 26.56 113.527 27.12 113.18 27.6C113.113 27.3467 113.013 27.0733 112.88 26.78C112.76 26.4733 112.627 26.1733 112.48 25.88C112.347 25.5867 112.22 25.3333 112.1 25.12C112.5 24.6267 112.887 24.02 113.26 23.3C113.647 22.5667 114 21.8133 114.32 21.04C114.64 20.2533 114.887 19.5267 115.06 18.86ZM117.68 20.02C117.787 20.1267 117.94 20.2933 118.14 20.52C118.353 20.7467 118.587 21.0067 118.84 21.3C119.093 21.58 119.333 21.8667 119.56 22.16C119.8 22.44 120.013 22.6933 120.2 22.92C120.4 23.1467 120.54 23.32 120.62 23.44L119.16 25.32C119.027 25.0267 118.853 24.6867 118.64 24.3C118.427 23.9 118.193 23.4933 117.94 23.08C117.687 22.6533 117.44 22.2533 117.2 21.88C116.96 21.5067 116.753 21.2 116.58 20.96L117.68 20.02ZM112.44 12.64L114.12 12.2C114.293 12.68 114.447 13.2 114.58 13.76C114.727 14.32 114.847 14.8667 114.94 15.4C115.033 15.9333 115.1 16.4133 115.14 16.84L113.34 17.32C113.327 16.8933 113.273 16.4133 113.18 15.88C113.1 15.3333 112.993 14.78 112.86 14.22C112.74 13.6467 112.6 13.12 112.44 12.64ZM119.02 12.1L121.04 12.54C120.88 13.0867 120.707 13.6467 120.52 14.22C120.333 14.7933 120.147 15.3467 119.96 15.88C119.773 16.4 119.6 16.86 119.44 17.26L117.92 16.82C118.067 16.3933 118.207 15.9067 118.34 15.36C118.487 14.8 118.62 14.2333 118.74 13.66C118.86 13.0867 118.953 12.5667 119.02 12.1ZM126.6 11H128.84V29.78H126.6V11ZM120.62 23.52L130.9 21.68L131.26 23.9L120.98 25.76L120.62 23.52ZM121.74 13.72L122.92 12.1C123.293 12.3133 123.68 12.56 124.08 12.84C124.493 13.12 124.88 13.4067 125.24 13.7C125.613 13.9933 125.907 14.2667 126.12 14.52L124.88 16.32C124.68 16.0533 124.4 15.7667 124.04 15.46C123.693 15.1533 123.32 14.8467 122.92 14.54C122.52 14.2333 122.127 13.96 121.74 13.72ZM120.84 18.76L121.96 17.04C122.36 17.24 122.773 17.48 123.2 17.76C123.627 18.0267 124.033 18.3 124.42 18.58C124.807 18.8467 125.12 19.1067 125.36 19.36L124.14 21.28C123.927 21.0267 123.633 20.7533 123.26 20.46C122.887 20.1533 122.487 19.8533 122.06 19.56C121.647 19.2533 121.24 18.9867 120.84 18.76ZM133.804 17.024C134.124 17.0133 134.428 17.0027 134.716 16.992C135.004 16.9707 135.223 16.9547 135.372 16.944C135.703 16.9227 136.108 16.8907 136.588 16.848C137.079 16.7947 137.623 16.7413 138.22 16.688C138.828 16.6347 139.473 16.5813 140.156 16.528C140.839 16.4747 141.548 16.416 142.284 16.352C142.839 16.2987 143.388 16.256 143.932 16.224C144.487 16.1813 145.009 16.1493 145.5 16.128C146.001 16.096 146.439 16.0747 146.812 16.064L146.828 18.112C146.54 18.112 146.209 18.1173 145.836 18.128C145.463 18.1387 145.089 18.16 144.716 18.192C144.353 18.2133 144.028 18.2613 143.74 18.336C143.26 18.464 142.812 18.6827 142.396 18.992C141.98 19.2907 141.617 19.648 141.308 20.064C141.009 20.4693 140.775 20.912 140.604 21.392C140.433 21.8613 140.348 22.336 140.348 22.816C140.348 23.3387 140.439 23.8027 140.62 24.208C140.812 24.6027 141.068 24.944 141.388 25.232C141.719 25.5093 142.103 25.744 142.54 25.936C142.977 26.1173 143.447 26.256 143.948 26.352C144.46 26.448 144.988 26.512 145.532 26.544L144.78 28.736C144.108 28.6933 143.452 28.5867 142.812 28.416C142.183 28.2453 141.591 28.0107 141.036 27.712C140.481 27.4133 139.996 27.0507 139.58 26.624C139.175 26.1867 138.849 25.6907 138.604 25.136C138.369 24.5707 138.252 23.9413 138.252 23.248C138.252 22.48 138.375 21.776 138.62 21.136C138.865 20.4853 139.169 19.92 139.532 19.44C139.905 18.9493 140.273 18.5707 140.636 18.304C140.337 18.3467 139.975 18.3893 139.548 18.432C139.132 18.4747 138.679 18.528 138.188 18.592C137.708 18.6453 137.217 18.704 136.716 18.768C136.215 18.832 135.729 18.9067 135.26 18.992C134.801 19.0667 134.385 19.1413 134.012 19.216L133.804 17.024ZM144.54 19.68C144.679 19.872 144.823 20.1013 144.972 20.368C145.132 20.624 145.287 20.8853 145.436 21.152C145.585 21.408 145.713 21.6427 145.82 21.856L144.604 22.4C144.401 21.952 144.204 21.5573 144.012 21.216C143.831 20.8747 143.612 20.528 143.356 20.176L144.54 19.68ZM146.332 18.944C146.471 19.136 146.62 19.36 146.78 19.616C146.951 19.8613 147.116 20.1173 147.276 20.384C147.436 20.64 147.569 20.8693 147.676 21.072L146.476 21.648C146.263 21.2213 146.055 20.8427 145.852 20.512C145.66 20.1813 145.431 19.84 145.164 19.488L146.332 18.944Z" fill="#379FAA"/>
<path d="M111.765 38H120L115.294 42L110 46L111.765 38Z" fill="white"/>
</svg>
